<?xml version="1.0" encoding="UTF-8"?>
<svg width="88px" height="89px" viewBox="0 0 88 89" version="1.1" xmlns="http://www.w3.org/2000/svg" xmlns:xlink="http://www.w3.org/1999/xlink">
    <!-- Generator: Sketch 52.4 (67378) - http://www.bohemiancoding.com/sketch -->
    <title>logo_1</title>
    <desc>Created with Sketch.</desc>
    <g id="Page-1" stroke="none" stroke-width="1" fill="none" fill-rule="evenodd">
        <g id="Front" transform="translate(-35.000000, -851.000000)">
            <g id="el" style="mix-blend-mode: darken;" transform="translate(35.000000, 851.000000)">
                <g id="logo_1">
                    <polygon id="Shape" fill="#141515" fill-rule="nonzero" points="21.7032967 69.0879121 21.7032967 62.8681319 26.2087912 62.8681319 26.2087912 63.6043956 22.5274725 63.6043956 22.5274725 65.5054945 25.967033 65.5054945 25.967033 66.2417582 22.5274725 66.2417582 22.5274725 68.3626374 26.3516484 68.3626374 26.3516484 69.0879121"></polygon>
                    <path d="M30.3406593,69.0879121 L30.3406593,68.4285714 C30.029711,68.9136177 29.4880693,69.2011044 28.9120879,69.1868132 C28.6549442,69.1887739 28.4002914,69.1363454 28.1648352,69.032967 C27.9613295,68.9533416 27.7829519,68.8205072 27.6483516,68.6483516 C27.5304554,68.4771029 27.4516709,68.2820173 27.4175824,68.0769231 C27.3959835,67.8393177 27.3959835,67.6002428 27.4175824,67.3626374 L27.4175824,64.5714286 L28.1758242,64.5714286 L28.1758242,67.0659341 C28.1522603,67.3328142 28.1522603,67.6012517 28.1758242,67.8681319 C28.2187481,68.0572977 28.3278775,68.2248893 28.4835165,68.3406593 C28.6533315,68.461122 28.8578289,68.522857 29.0659341,68.5164835 C29.294028,68.517994 29.5182057,68.4572 29.7142857,68.3406593 C29.9077928,68.2326916 30.0589,68.0622117 30.1428571,67.8571429 C30.237547,67.5741876 30.2785432,67.276033 30.2637363,66.978022 L30.2637363,64.5604396 L31.021978,64.5604396 L31.021978,69.0659341 L30.3406593,69.0879121 Z" id="Shape" fill="#141515" fill-rule="nonzero"></path>
                    <path d="M32.2087912,69.0879121 L32.2087912,64.5824176 L32.8901099,64.5824176 L32.8901099,65.2637363 C33.0044136,65.0226349 33.1693286,64.808995 33.3736264,64.6373626 C33.5183311,64.5356579 33.6912688,64.4818551 33.8681319,64.4835165 C34.1456087,64.4900892 34.4157734,64.5738022 34.6483516,64.7252747 L34.3846154,65.4395604 C34.2160957,65.3350572 34.0224394,65.2780995 33.8241758,65.2747253 C33.66096,65.2738499 33.5022202,65.3280537 33.3736264,65.4285714 C33.2364057,65.5338411 33.1363213,65.6801184 33.0879121,65.8461538 C32.9987905,66.1343893 32.9543193,66.4345696 32.956044,66.7362637 L32.956044,69.0989011 L32.2087912,69.0879121 Z" id="Shape" fill="#141515" fill-rule="nonzero"></path>
                    <path d="M34.8241758,66.8351648 C34.7654094,66.1437085 35.0194329,65.4622802 35.5164835,64.978022 C35.9102765,64.6400799 36.4152975,64.4599949 36.9340659,64.4725275 C37.5036966,64.454774 38.0543688,64.6782352 38.4505495,65.0879121 C38.8656097,65.546221 39.0793875,66.1519248 39.043956,66.7692308 C39.0663429,67.241551 38.9759374,67.712413 38.7802198,68.1428571 C38.6098094,68.4691235 38.3457588,68.7370009 38.021978,68.9120879 C37.6859732,69.0981049 37.3070891,69.1928259 36.9230769,69.1868132 C36.3513339,69.2105681 35.7962985,68.9909499 35.3956044,68.5824176 C34.9785307,68.09966 34.7691824,67.4716151 34.8131868,66.8351648 L34.8241758,66.8351648 Z M35.6043956,66.8351648 C35.5672048,67.2984429 35.700025,67.7594069 35.978022,68.1318681 C36.2160161,68.40911 36.5631891,68.5686304 36.9285714,68.5686304 C37.2939538,68.5686304 37.6411267,68.40911 37.8791209,68.1318681 C38.1577263,67.7513147 38.2903234,67.283325 38.2527473,66.8131868 C38.2837516,66.3590406 38.1468813,65.9093239 37.8681319,65.5494505 C37.6283017,65.2793004 37.2843243,65.1247021 36.9230769,65.1247021 C36.5618296,65.1247021 36.2178522,65.2793004 35.978022,65.5494505 C35.7025969,65.9189868 35.5699145,66.3755704 35.6043956,66.8351648 Z" id="Shape" fill="#141515" fill-rule="nonzero"></path>
                    <path d="M39.6593407,66.8351648 C39.6005742,66.1437085 39.8545977,65.4622802 40.3516484,64.978022 C40.7454414,64.6400799 41.2504623,64.4599949 41.7692308,64.4725275 C42.3388614,64.454774 42.8895337,64.6782352 43.2857143,65.0879121 C43.7007746,65.546221 43.9145524,66.1519248 43.8791209,66.7692308 C43.9015077,67.241551 43.8111022,67.712413 43.6153846,68.1428571 C43.4449742,68.4691235 43.1809236,68.7370009 42.8571429,68.9120879 C42.5211381,69.0981049 42.142254,69.1928259 41.7582418,69.1868132 C41.1864987,69.2105681 40.6314634,68.9909499 40.2307692,68.5824176 C39.8136955,68.09966 39.6043472,67.4716151 39.6483516,66.8351648 L39.6593407,66.8351648 Z M40.4395604,66.8351648 C40.4023697,67.2984429 40.5351898,67.7594069 40.8131868,68.1318681 C41.0511809,68.40911 41.3983539,68.5686304 41.7637363,68.5686304 C42.1291186,68.5686304 42.4762916,68.40911 42.7142857,68.1318681 C42.9928911,67.7513147 43.1254882,67.283325 43.0879121,66.8131868 C43.1189164,66.3590406 42.9820461,65.9093239 42.7032967,65.5494505 C42.4634665,65.2793004 42.1194891,65.1247021 41.7582418,65.1247021 C41.3969944,65.1247021 41.053017,65.2793004 40.8131868,65.5494505 C40.5377618,65.9189868 40.4050793,66.3755704 40.4395604,66.8351648 Z" id="Shape" fill="#141515" fill-rule="nonzero"></path>
                    <path d="M44.7802198,70.8131868 L44.7802198,64.5824176 L45.4945055,64.5824176 L45.4945055,65.1648352 C45.6399098,64.952553 45.831519,64.775972 46.0549451,64.6483516 C46.2848274,64.5266257 46.5421564,64.4660777 46.8021978,64.4725275 C47.1650485,64.4656134 47.5214402,64.569082 47.8241758,64.7692308 C48.1266089,64.9737794 48.3602447,65.2648666 48.4945055,65.6043956 C48.6500109,65.98059 48.7284816,66.3841536 48.7252747,66.7912088 C48.7304051,67.218403 48.6442339,67.6417661 48.4725275,68.032967 C48.1662851,68.7039612 47.4958148,69.1337498 46.7582418,69.1318681 C46.5210229,69.1339002 46.2869784,69.0772765 46.0769231,68.967033 C45.8857586,68.8671351 45.7173804,68.7286908 45.5824176,68.5604396 L45.5824176,70.7582418 L44.7802198,70.8131868 Z M45.4725275,66.8571429 C45.436538,67.3135787 45.5608986,67.768272 45.8241758,68.1428571 C46.0314806,68.405206 46.3469539,68.5588981 46.6813187,68.5604396 C47.0214249,68.5596221 47.3419861,68.4013703 47.5494505,68.1318681 C47.8206229,67.7439943 47.9487928,67.2740382 47.9120879,66.8021978 C47.9462386,66.3459374 47.8220447,65.8918535 47.5604396,65.5164835 C47.3577346,65.2529903 47.0466433,65.0954246 46.7142857,65.0879121 C46.3683845,65.0965055 46.0467317,65.2675108 45.8461538,65.5494505 C45.5837543,65.9327287 45.459728,66.3939515 45.4945055,66.8571429 L45.4725275,66.8571429 Z" id="Shape" fill="#141515" fill-rule="nonzero"></path>
                    <path d="M52.5494505,68.5274725 C52.3082573,68.7398479 52.033453,68.9106721 51.7362637,69.032967 C51.4651716,69.1313614 51.1784792,69.179764 50.8901099,69.1758242 C50.4918807,69.1927287 50.1011602,69.0637909 49.7912088,68.8131868 C49.5304898,68.5783004 49.3858883,68.240897 49.3956044,67.8901099 C49.3936456,67.6787169 49.4466606,67.4704439 49.5494505,67.2857143 C49.6439964,67.1094739 49.7797129,66.9586778 49.9450549,66.8461538 C50.1132613,66.7326204 50.298843,66.6472528 50.4945055,66.5934066 C50.7190398,66.5423047 50.9466095,66.5055999 51.1758242,66.4835165 C51.6377348,66.4415448 52.0942481,66.3531874 52.5384615,66.2197802 C52.5384615,66.1208791 52.5384615,66.043956 52.5384615,66.021978 C52.5644718,65.7807051 52.4842533,65.5400496 52.3186813,65.3626374 C52.0719272,65.1702944 51.7625967,65.0763206 51.4505495,65.0989011 C51.1738916,65.0785039 50.8976575,65.1437259 50.6593407,65.2857143 C50.4585875,65.4588773 50.3229109,65.6953422 50.2747253,65.956044 L49.5274725,65.8571429 C49.5770296,65.5788772 49.6898174,65.3157056 49.8571429,65.0879121 C50.0338295,64.8777453 50.2661443,64.7215992 50.5274725,64.6373626 C50.8560614,64.5238307 51.2018298,64.4680616 51.5494505,64.4725275 C51.8661041,64.4618533 52.1821936,64.5064777 52.4835165,64.6043956 C52.6854092,64.6713288 52.8669354,64.7885645 53.010989,64.9450549 C53.1316128,65.0954714 53.2145054,65.2725602 53.2527473,65.4615385 C53.2715319,65.6955944 53.2715319,65.9307792 53.2527473,66.1648352 L53.2527473,67.1868132 C53.2239444,67.6369023 53.2239444,68.0883724 53.2527473,68.5384615 C53.2877656,68.7278406 53.354648,68.9099093 53.4505495,69.0769231 L52.6483516,69.0769231 C52.5636098,68.9009469 52.5114843,68.7110613 52.4945055,68.5164835 L52.5494505,68.5274725 Z M52.4835165,66.8241758 C52.0818586,66.9664958 51.6652258,67.0623582 51.2417582,67.1098901 C51.0129531,67.1340995 50.7878922,67.1857528 50.5714286,67.2637363 C50.3687296,67.3574004 50.2259773,67.5458472 50.1906991,67.766336 C50.1554209,67.9868248 50.2322489,68.2104045 50.3956044,68.3626374 C50.5909036,68.5096234 50.8332748,68.5799892 51.0769231,68.5604396 C51.3497584,68.5633593 51.6186524,68.495189 51.8571429,68.3626374 C52.0764588,68.2437437 52.2531797,68.0593393 52.3626374,67.8351648 C52.4559447,67.5937684 52.4971393,67.3353663 52.4835165,67.0769231 L52.4835165,66.8241758 Z" id="Shape" fill="#141515" fill-rule="nonzero"></path>
                    <polygon id="Shape" fill="#141515" fill-rule="nonzero" points="56.9230769 69.0879121 56.9230769 62.8681319 57.7472527 62.8681319 57.7472527 68.3626374 60.8131868 68.3626374 60.8131868 69.0879121"></polygon>
                    <path d="M61.6923077,63.7472527 L61.6923077,62.8681319 L62.4615385,62.8681319 L62.4615385,63.7472527 L61.6923077,63.7472527 Z M61.6923077,69.0879121 L61.6923077,64.5824176 L62.4615385,64.5824176 L62.4615385,69.0879121 L61.6923077,69.0879121 Z" id="Shape" fill="#141515" fill-rule="nonzero"></path>
                    <path d="M63.6263736,63.7472527 L63.6263736,62.8681319 L64.3956044,62.8681319 L64.3956044,63.7472527 L63.6263736,63.7472527 Z M63.6263736,69.0879121 L63.6263736,64.5824176 L64.3956044,64.5824176 L64.3956044,69.0879121 L63.6263736,69.0879121 Z" id="Shape" fill="#141515" fill-rule="nonzero"></path>
                    <path d="M67.2197802,68.4065934 L67.3296703,69.0769231 C67.1418971,69.118068 66.950451,69.1401579 66.7582418,69.1428571 C66.5343939,69.1552038 66.3111308,69.1097944 66.1098901,69.010989 C65.9672347,68.9328265 65.8549963,68.8089772 65.7912088,68.6593407 C65.7079624,68.3666421 65.6745292,68.0620284 65.6923077,67.7582418 L65.6923077,65.1648352 L65.1318681,65.1648352 L65.1318681,64.5714286 L65.6923077,64.5714286 L65.6923077,63.4725275 L66.4505495,63.010989 L66.4505495,64.5824176 L67.2197802,64.5824176 L67.2197802,65.1758242 L66.4505495,65.1758242 L66.4505495,67.7802198 C66.4290946,67.9185872 66.4290946,68.0594348 66.4505495,68.1978022 C66.4772648,68.2616561 66.5234008,68.3154814 66.5824176,68.3516484 C66.6688483,68.3744722 66.7597231,68.3744722 66.8461538,68.3516484 L67.2197802,68.4065934 Z" id="Shape" fill="#141515" fill-rule="nonzero"></path>
                    <polygon id="Shape" fill="#141515" fill-rule="nonzero" points="28.4725275 77.956044 28.4725275 71.7362637 32.967033 71.7362637 32.967033 72.4725275 29.2857143 72.4725275 29.2857143 74.3736264 32.7362637 74.3736264 32.7362637 75.1098901 29.2857143 75.1098901 29.2857143 77.2307692 33.1098901 77.2307692 33.1098901 77.956044"></polygon>
                    <path d="M37.0989011,77.956044 L37.0989011,77.2967033 C36.7879527,77.7817495 36.246311,78.0692363 35.6703297,78.0549451 C35.413186,78.0569058 35.1585332,78.0044772 34.9230769,77.9010989 C34.7195713,77.8214735 34.5411936,77.6886391 34.4065934,77.5164835 C34.2886972,77.3452347 34.2099126,77.1501492 34.1758242,76.9450549 C34.1542252,76.7074495 34.1542252,76.4683746 34.1758242,76.2307692 L34.1758242,73.4395604 L34.9340659,73.4395604 L34.9340659,75.9340659 C34.9104449,76.2009436 34.9104449,76.4693861 34.9340659,76.7362637 C34.9769899,76.9254296 35.0861193,77.0930212 35.2417582,77.2087912 C35.4115733,77.3292539 35.6160706,77.3909889 35.8241758,77.3846154 C36.0522697,77.3861259 36.2764474,77.3253319 36.4725275,77.2087912 C36.6660346,77.1008235 36.8171418,76.9303436 36.9010989,76.7252747 C36.9957887,76.4423195 37.036785,76.1441649 37.021978,75.8461538 L37.021978,73.4285714 L37.8021978,73.4285714 L37.8021978,77.9340659 L37.0989011,77.956044 Z" id="Shape" fill="#141515" fill-rule="nonzero"></path>
                    <path d="M38.967033,77.956044 L38.967033,73.4505495 L39.6483516,73.4505495 L39.6483516,74.1318681 C39.7626554,73.8907667 39.9275704,73.6771268 40.1318681,73.5054945 C40.2765729,73.4037898 40.4495105,73.349987 40.6263736,73.3516484 C40.9038505,73.358221 41.1740151,73.441934 41.4065934,73.5934066 L41.1428571,74.3076923 C40.9743374,74.2031891 40.7806811,74.1462313 40.5824176,74.1428571 C40.4192018,74.1419817 40.2604619,74.1961856 40.1318681,74.2967033 C39.9952024,74.4024974 39.8952528,74.5485775 39.8461538,74.7142857 C39.7570323,75.0025212 39.7125611,75.3027014 39.7142857,75.6043956 L39.7142857,77.967033 L38.967033,77.956044 Z" id="Shape" fill="#141515" fill-rule="nonzero"></path>
                    <path d="M41.5824176,75.7032967 C41.5236511,75.0118404 41.7776747,74.3304121 42.2747253,73.8461538 C42.6685183,73.5082118 43.1735392,73.3281268 43.6923077,73.3406593 C44.2619383,73.3229058 44.8126106,73.546367 45.2087912,73.956044 C45.6238515,74.4143529 45.8376293,75.0200566 45.8021978,75.6373626 C45.8245847,76.1096829 45.7341792,76.5805448 45.5384615,77.010989 C45.3680512,77.3372553 45.1040005,77.6051328 44.7802198,77.7802198 C44.444215,77.9662367 44.0653309,78.0609577 43.6813187,78.0549451 C43.1095756,78.0787 42.5545403,77.8590817 42.1538462,77.4505495 C41.7367724,76.9677919 41.5274242,76.339747 41.5714286,75.7032967 L41.5824176,75.7032967 Z M42.3626374,75.7032967 C42.3254466,76.1665748 42.4582667,76.6275388 42.7362637,77 C42.9742579,77.2772419 43.3214308,77.4367623 43.6868132,77.4367623 C44.0521955,77.4367623 44.3993685,77.2772419 44.6373626,77 C44.9159681,76.6194465 45.0485651,76.1514569 45.010989,75.6813187 C45.0419933,75.2271725 44.905123,74.7774557 44.6263736,74.4175824 C44.3865434,74.1474322 44.042566,73.9928339 43.6813187,73.9928339 C43.3200713,73.9928339 42.9760939,74.1474322 42.7362637,74.4175824 C42.4647366,74.7886159 42.3359946,75.2450646 42.3736264,75.7032967 L42.3626374,75.7032967 Z" id="Shape" fill="#141515" fill-rule="nonzero"></path>
                    <path d="M46.4175824,75.7032967 C46.358816,75.0118404 46.6128395,74.3304121 47.1098901,73.8461538 C47.5036831,73.5082118 48.0087041,73.3281268 48.5274725,73.3406593 C49.0971032,73.3229058 49.6477754,73.546367 50.043956,73.956044 C50.4590163,74.4143529 50.6727941,75.0200566 50.6373626,75.6373626 C50.6597495,76.1096829 50.569344,76.5805448 50.3736264,77.010989 C50.203216,77.3372553 49.9391654,77.6051328 49.6153846,77.7802198 C49.2793798,77.9662367 48.9004957,78.0609577 48.5164835,78.0549451 C47.9447405,78.0787 47.3897051,77.8590817 46.989011,77.4505495 C46.5719373,76.9677919 46.362589,76.339747 46.4065934,75.7032967 L46.4175824,75.7032967 Z M47.1978022,75.7032967 C47.1606114,76.1665748 47.2934316,76.6275388 47.5714286,77 C47.8094227,77.2772419 48.1565957,77.4367623 48.521978,77.4367623 C48.8873604,77.4367623 49.2345333,77.2772419 49.4725275,77 C49.7511329,76.6194465 49.88373,76.1514569 49.8461538,75.6813187 C49.8771582,75.2271725 49.7402879,74.7774557 49.4615385,74.4175824 C49.2217083,74.1474322 48.8777309,73.9928339 48.5164835,73.9928339 C48.1552362,73.9928339 47.8112588,74.1474322 47.5714286,74.4175824 C47.2999014,74.7886159 47.1711595,75.2450646 47.2087912,75.7032967 L47.1978022,75.7032967 Z" id="Shape" fill="#141515" fill-rule="nonzero"></path>
                    <path d="M51.5384615,79.6813187 L51.5384615,73.4505495 L52.2307692,73.4505495 L52.2307692,74.032967 C52.3761736,73.8206849 52.5677828,73.6441039 52.7912088,73.5164835 C53.0210912,73.3947576 53.2784201,73.3342096 53.5384615,73.3406593 C53.9013122,73.3337453 54.2577039,73.4372139 54.5604396,73.6373626 C54.8628726,73.8419113 55.0965084,74.1329985 55.2307692,74.4725275 C55.3862747,74.8487219 55.4647454,75.2522855 55.4615385,75.6593407 C55.4666688,76.0865349 55.3804976,76.509898 55.2087912,76.9010989 C54.9025488,77.5720931 54.2320786,78.0018817 53.4945055,78 C53.2572867,78.0020321 53.0232422,77.9454084 52.8131868,77.8351648 C52.6220223,77.735267 52.4536441,77.5968227 52.3186813,77.4285714 L52.3186813,79.6263736 L51.5384615,79.6813187 Z M52.2307692,75.7252747 C52.1947798,76.1817106 52.3191403,76.6364039 52.5824176,77.010989 C52.7897224,77.2733378 53.1051956,77.4270299 53.4395604,77.4285714 C53.7796666,77.4277539 54.1002279,77.2695022 54.3076923,77 C54.5788647,76.6121262 54.7070345,76.14217 54.6703297,75.6703297 C54.6975341,75.2064374 54.5614565,74.7476616 54.2857143,74.3736264 C54.0830093,74.1101332 53.771918,73.9525675 53.4395604,73.9450549 C53.0936592,73.9536484 52.7720065,74.1246536 52.5714286,74.4065934 C52.3104594,74.7942827 52.1902279,75.2596952 52.2307692,75.7252747 Z" id="Shape" fill="#141515" fill-rule="nonzero"></path>
                    <path d="M59.3076923,77.3956044 C59.066499,77.6079797 58.7916948,77.778804 58.4945055,77.9010989 C58.2234134,77.9994932 57.936721,78.0478959 57.6483516,78.043956 C57.2501224,78.0608606 56.8594019,77.9319228 56.5494505,77.6813187 C56.2887316,77.4464323 56.1441301,77.1090289 56.1538462,76.7582418 C56.1518874,76.5468488 56.2049023,76.3385758 56.3076923,76.1538462 C56.4022382,75.9776057 56.5379547,75.8268096 56.7032967,75.7142857 C56.8715031,75.6007523 57.0570847,75.5153847 57.2527473,75.4615385 C57.4772815,75.4104365 57.7048512,75.3737317 57.9340659,75.3516484 C58.3959766,75.3096766 58.8524898,75.2213192 59.2967033,75.0879121 C59.2967033,74.989011 59.2967033,74.9120879 59.2967033,74.8901099 C59.3227136,74.6488369 59.2424951,74.4081814 59.0769231,74.2307692 C58.830169,74.0384263 58.5208385,73.9444525 58.2087912,73.967033 C57.9321333,73.9466358 57.6558992,74.0118577 57.4175824,74.1538462 C57.2168292,74.3270091 57.0811526,74.5634741 57.032967,74.8241758 L56.2857143,74.7252747 C56.3352714,74.4470091 56.4480592,74.1838375 56.6153846,73.956044 C56.7920712,73.7458771 57.0243861,73.5897311 57.2857143,73.5054945 C57.6143032,73.3919626 57.9600715,73.3361935 58.3076923,73.3406593 C58.6243458,73.3299852 58.9404354,73.3746096 59.2417582,73.4725275 C59.4436509,73.5394606 59.6251772,73.6566963 59.7692308,73.8131868 C59.8898545,73.9636033 59.9727472,74.1406921 60.010989,74.3296703 C60.0297737,74.5637263 60.0297737,74.7989111 60.010989,75.032967 L60.010989,76.0549451 C59.9821862,76.5050342 59.9821862,76.9565043 60.010989,77.4065934 C60.0460074,77.5959725 60.1128897,77.7780411 60.2087912,77.9450549 L59.4065934,77.9450549 C59.3218515,77.7690788 59.269726,77.5791931 59.2527473,77.3846154 L59.3076923,77.3956044 Z M59.2417582,75.6923077 C58.8401003,75.8346277 58.4234676,75.9304901 58,75.978022 C57.7711948,76.0022314 57.5461339,76.0538847 57.3296703,76.1318681 C57.1269713,76.2255323 56.9842191,76.4139791 56.9489409,76.6344679 C56.9136627,76.8549567 56.9904907,77.0785363 57.1538462,77.2307692 C57.3491454,77.3777552 57.5915166,77.4481211 57.8351648,77.4285714 C58.1080001,77.4314912 58.3768942,77.3633209 58.6153846,77.2307692 C58.8347006,77.1118756 59.0114214,76.9274712 59.1208791,76.7032967 C59.2141865,76.4619003 59.255381,76.2034982 59.2417582,75.9450549 L59.2417582,75.6923077 Z" id="Shape" fill="#141515" fill-rule="nonzero"></path>
                    <path d="M0.681318681,86.8241758 L0.681318681,80.6043956 L3.43956044,80.6043956 C3.86719504,80.5852266 4.29488653,80.6410125 4.7032967,80.7692308 C4.99444535,80.883195 5.23845228,81.0923438 5.3956044,81.3626374 C5.56501672,81.644456 5.65253969,81.9679105 5.64835165,82.2967033 C5.6547692,82.7049673 5.50090807,83.0994831 5.21978022,83.3956044 C4.85820122,83.7324793 4.39363834,83.9376613 3.9010989,83.978022 C4.07963676,84.0567202 4.24612595,84.1603135 4.3956044,84.2857143 C4.65597669,84.5311538 4.88483682,84.8080008 5.07692308,85.1098901 L6.17582418,86.8021978 L5.14285714,86.8021978 L4.31868132,85.5054945 C4.07692308,85.1318681 3.87912088,84.8461538 3.72527473,84.6483516 C3.6096851,84.4874008 3.46864314,84.3463589 3.30769231,84.2307692 C3.19310029,84.1555815 3.06685131,84.0998835 2.93406593,84.0659341 C2.78052294,84.0522753 2.62607046,84.0522753 2.47252747,84.0659341 L1.53846154,84.0659341 L1.53846154,86.8241758 L0.681318681,86.8241758 Z M1.50549451,83.3516484 L3.27472527,83.3516484 C3.57248957,83.361298 3.86973656,83.3204265 4.15384615,83.2307692 C4.35194548,83.1632062 4.52201135,83.0317916 4.63736264,82.8571429 C4.74625942,82.69062 4.80359865,82.4956666 4.8021978,82.2967033 C4.81038437,82.0193342 4.6933577,81.7529976 4.48351648,81.5714286 C4.19220327,81.3569772 3.83299606,81.2554621 3.47252747,81.2857143 L1.53846154,81.2857143 L1.50549451,83.3516484 Z" id="Shape" fill="#141515" fill-rule="nonzero"></path>
                    <path d="M9.93406593,85.3626374 L10.7252747,85.4615385 C10.6280735,85.8966896 10.3835063,86.2848914 10.032967,86.5604396 C9.65839752,86.8266369 9.20647163,86.9618284 8.74725275,86.9450549 C8.16116346,86.977267 7.5892741,86.7573096 7.17582418,86.3406593 C6.76557242,85.8713886 6.55637214,85.2595764 6.59340659,84.6373626 C6.55182603,83.9945405 6.7605296,83.3605542 7.17582418,82.8681319 C7.56680362,82.4496485 8.11997104,82.2211663 8.69230769,82.2417582 C9.24911503,82.2239164 9.78629762,82.4484106 10.1648352,82.8571429 C10.5704158,83.3371691 10.7751114,83.9551922 10.7362637,84.5824176 C10.7362637,84.5824176 10.7362637,84.6923077 10.7362637,84.7912088 L7.38461538,84.7912088 C7.39087472,85.1950988 7.53865282,85.5839885 7.8021978,85.8901099 C8.04642994,86.1506517 8.39024733,86.2945753 8.74725275,86.2857143 C9.00302454,86.2928941 9.25404451,86.2156572 9.46153846,86.0659341 C9.68553154,85.8837537 9.85006114,85.6388724 9.93406593,85.3626374 Z M7.42857143,84.1318681 L9.94505495,84.1318681 C9.93911913,83.8237604 9.83945663,83.5247729 9.65934066,83.2747253 C9.43001516,82.9889623 9.08058404,82.8264362 8.71428571,82.8351648 C8.38206693,82.8262276 8.06058517,82.9532328 7.82417582,83.1868132 C7.57468455,83.4430364 7.43307493,83.7852597 7.42857143,84.1428571 L7.42857143,84.1318681 Z" id="Shape" fill="#141515" fill-rule="nonzero"></path>
                    <path d="M11.5384615,87.1978022 L12.2857143,87.3076923 C12.2968859,87.5037723 12.3883005,87.6866015 12.5384615,87.8131868 C12.7690283,87.9655141 13.0428517,88.0387908 13.3186813,88.021978 C13.608574,88.0412929 13.8971258,87.9681932 14.1428571,87.8131868 C14.3329423,87.6631646 14.4681511,87.4545567 14.5274725,87.2197802 C14.5606802,86.8946185 14.5606802,86.5669199 14.5274725,86.2417582 C14.2267861,86.6199365 13.7688479,86.8387742 13.2857143,86.8351648 C12.7243063,86.8647029 12.1848784,86.6135189 11.8461538,86.1648352 C11.503317,85.7014414 11.3253741,85.1366663 11.3406593,84.5604396 C11.3362422,84.1532736 11.4147596,83.7494701 11.5714286,83.3736264 C11.7102737,83.0306476 11.9472863,82.7362932 12.2527473,82.5274725 C12.5628606,82.3255823 12.926763,82.2221574 13.2967033,82.2307692 C13.8148088,82.222882 14.3052503,82.4640158 14.6153846,82.8791209 L14.6153846,82.3406593 L15.3186813,82.3406593 L15.3186813,86.2307692 C15.3520801,86.7379764 15.2810167,87.246641 15.1098901,87.7252747 C14.9615939,88.022204 14.7230901,88.2645546 14.4285714,88.4175824 C14.0881887,88.5897031 13.7110474,88.6764455 13.3296703,88.6703297 C12.8701413,88.6880898 12.4166172,88.5612568 12.032967,88.3076923 C11.6902072,88.0515542 11.5067227,87.6345439 11.5494505,87.2087912 L11.5384615,87.1978022 Z M12.1648352,84.4945055 C12.1243095,84.9547875 12.2489674,85.4144635 12.5164835,85.7912088 C12.7307672,86.0555412 13.0554179,86.2056922 13.3956044,86.1978022 C13.7357909,86.2056922 14.0604416,86.0555412 14.2747253,85.7912088 C14.5416013,85.4225007 14.6664644,84.9698721 14.6263736,84.5164835 C14.6592168,84.0723744 14.5304251,83.6313605 14.2637363,83.2747253 C14.0493207,83.0031603 13.7195249,82.8484413 13.3736264,82.8571429 C13.0354062,82.8553209 12.7151891,83.0093494 12.5054945,83.2747253 C12.2546824,83.629477 12.1378635,84.0617071 12.1758242,84.4945055 L12.1648352,84.4945055 Z" id="Shape" fill="#141515" fill-rule="nonzero"></path>
                    <path d="M16.5164835,81.4835165 L16.5164835,80.6043956 L17.2857143,80.6043956 L17.2857143,81.4835165 L16.5164835,81.4835165 Z M16.5164835,86.8241758 L16.5164835,82.3186813 L17.2857143,82.3186813 L17.2857143,86.8241758 L16.5164835,86.8241758 Z" id="Shape" fill="#141515" fill-rule="nonzero"></path>
                    <path d="M18.1538462,84.5714286 C18.0950797,83.8799722 18.3491032,83.198544 18.8461538,82.7142857 C19.2399469,82.3763436 19.7449678,82.1962586 20.2637363,82.2087912 C20.8333669,82.1910377 21.3840392,82.4144989 21.7802198,82.8241758 C22.19528,83.2824847 22.4090578,83.8881885 22.3736264,84.5054945 C22.3960132,84.9778147 22.3056077,85.4486767 22.1098901,85.8791209 C21.9412533,86.2094545 21.67703,86.4813364 21.3516484,86.6593407 C21.0156436,86.8453576 20.6367595,86.9400786 20.2527473,86.9340659 C19.6810042,86.9578209 19.1259689,86.7382026 18.7252747,86.3296703 C18.308201,85.8469127 18.0988527,85.2188679 18.1428571,84.5824176 L18.1538462,84.5714286 Z M18.9340659,84.5714286 C18.8968752,85.0347066 19.0296953,85.4956706 19.3076923,85.8681319 C19.5456864,86.1453737 19.8928594,86.3048942 20.2582418,86.3048942 C20.6236241,86.3048942 20.9707971,86.1453737 21.2087912,85.8681319 C21.4873966,85.4875784 21.6199937,85.0195888 21.5824176,84.5494505 C21.6134219,84.0953044 21.4765516,83.6455876 21.1978022,83.2857143 C20.957972,83.0155641 20.6139946,82.8609658 20.2527473,82.8609658 C19.8914999,82.8609658 19.5475225,83.0155641 19.3076923,83.2857143 C19.0361652,83.6567477 18.9074232,84.1131964 18.9450549,84.5714286 L18.9340659,84.5714286 Z" id="Shape" fill="#141515" fill-rule="nonzero"></path>
                    <path d="M23.2747253,86.8241758 L23.2747253,82.3186813 L23.956044,82.3186813 L23.956044,82.956044 C24.2650201,82.4701521 24.8092781,82.1854633 25.3846154,82.2087912 C25.6408346,82.2049623 25.8951297,82.2535775 26.1318681,82.3516484 C26.3367509,82.4287726 26.5157531,82.5620721 26.6483516,82.7362637 C26.7674823,82.9039805 26.8498646,83.0949575 26.8901099,83.2967033 C26.9113204,83.545336 26.9113204,83.7953233 26.8901099,84.043956 L26.8901099,86.8131868 L26.1208791,86.8131868 L26.1208791,84.0769231 C26.1320881,83.8391854 26.1023512,83.6012899 26.032967,83.3736264 C25.9705153,83.2203664 25.8582502,83.0926165 25.7142857,83.010989 C25.5519538,82.9133268 25.3652197,82.8637851 25.1758242,82.8681319 C24.8652123,82.8612303 24.5632974,82.9710176 24.3296703,83.1758242 C24.0532277,83.5013695 23.9257025,83.9277817 23.978022,84.3516484 L23.978022,86.8131868 L23.2747253,86.8241758 Z" id="Shape" fill="#141515" fill-rule="nonzero"></path>
                    <path d="M31.043956,86.2747253 C30.8027628,86.4871006 30.5279585,86.6579249 30.2307692,86.7802198 C29.9597397,86.8788513 29.6730035,86.9272613 29.3846154,86.9230769 C28.9863862,86.9399814 28.5956657,86.8110437 28.2857143,86.5604396 C28.0249953,86.3255532 27.8803938,85.9881497 27.8901099,85.6373626 C27.8881511,85.4259697 27.9411661,85.2176967 28.043956,85.032967 C28.1385019,84.8567266 28.2742184,84.7059305 28.4395604,84.5934066 C28.6077668,84.4798731 28.7933485,84.3945056 28.989011,84.3406593 C29.213551,84.2895868 29.4411188,84.2528823 29.6703297,84.2307692 C30.1322299,84.1887239 30.5887358,84.1003679 31.032967,83.967033 C31.032967,83.8681319 31.032967,83.7912088 31.032967,83.7692308 C31.0589773,83.5279578 30.9787588,83.2873023 30.8131868,83.1098901 C30.5664327,82.9175472 30.2571022,82.8235734 29.9450549,82.8461538 C29.6683971,82.8257567 29.392163,82.8909786 29.1538462,83.032967 C28.953093,83.20613 28.8174164,83.4425949 28.7692308,83.7032967 L28.021978,83.6043956 C28.0715351,83.3261299 28.1843229,83.0629583 28.3516484,82.8351648 C28.5283349,82.624998 28.7606498,82.468852 29.021978,82.3846154 C29.3505669,82.2710834 29.6963353,82.2153144 30.043956,82.2197802 C30.3606096,82.209106 30.6766991,82.2537304 30.978022,82.3516484 C31.1799147,82.4185815 31.3614409,82.5358172 31.5054945,82.6923077 C31.6261183,82.8427242 31.7090109,83.019813 31.7472527,83.2087912 C31.7660374,83.4428471 31.7660374,83.678032 31.7472527,83.9120879 L31.7472527,84.9340659 C31.7184799,85.384156 31.7184799,85.8356242 31.7472527,86.2857143 C31.7822711,86.4750933 31.8491535,86.657162 31.9450549,86.8241758 L31.2087912,86.8241758 C31.1240493,86.6481997 31.0719238,86.458314 31.0549451,86.2637363 L31.043956,86.2747253 Z M30.978022,84.5714286 C30.5763911,84.7138414 30.1597476,84.8097063 29.7362637,84.8571429 C29.5074586,84.8813523 29.2823977,84.9330056 29.0659341,85.010989 C28.8632351,85.1046532 28.7204828,85.2931 28.6852046,85.5135888 C28.6499264,85.7340776 28.7267544,85.9576572 28.8901099,86.1098901 C29.0854091,86.2568761 29.3277803,86.3272419 29.5714286,86.3076923 C29.8442638,86.3106121 30.1131579,86.2424418 30.3516484,86.1098901 C30.5709643,85.9909965 30.7476852,85.8065921 30.8571429,85.5824176 C30.9504502,85.3410212 30.9916448,85.0826191 30.978022,84.8241758 L30.978022,84.5714286 Z" id="Shape" fill="#141515" fill-rule="nonzero"></path>
                    <path d="M35.8791209,86.2747253 C35.6379276,86.4871006 35.3631233,86.6579249 35.0659341,86.7802198 C34.7949045,86.8788513 34.5081683,86.9272613 34.2197802,86.9230769 C33.821551,86.9399814 33.4308305,86.8110437 33.1208791,86.5604396 C32.8601602,86.3255532 32.7155587,85.9881497 32.7252747,85.6373626 C32.723316,85.4259697 32.7763309,85.2176967 32.8791209,85.032967 C32.9736668,84.8567266 33.1093833,84.7059305 33.2747253,84.5934066 C33.4429317,84.4798731 33.6285133,84.3945056 33.8241758,84.3406593 C34.0487158,84.2895868 34.2762836,84.2528823 34.5054945,84.2307692 C34.9673947,84.1887239 35.4239006,84.1003679 35.8681319,83.967033 C35.8681319,83.8681319 35.8681319,83.7912088 35.8681319,83.7692308 C35.8941422,83.5279578 35.8139237,83.2873023 35.6483516,83.1098901 C35.4015976,82.9175472 35.0922671,82.8235734 34.7802198,82.8461538 C34.5035619,82.8257567 34.2273278,82.8909786 33.989011,83.032967 C33.7882578,83.20613 33.6525812,83.4425949 33.6043956,83.7032967 L32.8571429,83.6043956 C32.9066999,83.3261299 33.0194877,83.0629583 33.1868132,82.8351648 C33.3634998,82.624998 33.5958146,82.468852 33.8571429,82.3846154 C34.1857317,82.2710834 34.5315001,82.2153144 34.8791209,82.2197802 C35.1957744,82.209106 35.5118639,82.2537304 35.8131868,82.3516484 C36.0150795,82.4185815 36.1966058,82.5358172 36.3406593,82.6923077 C36.4612831,82.8427242 36.5441757,83.019813 36.5824176,83.2087912 C36.6012023,83.4428471 36.6012023,83.678032 36.5824176,83.9120879 L36.5824176,84.9340659 C36.5536148,85.3841551 36.5536148,85.8356252 36.5824176,86.2857143 C36.6174359,86.4750933 36.6843183,86.657162 36.7802198,86.8241758 L35.978022,86.8241758 C35.8932801,86.6481997 35.8411546,86.458314 35.8241758,86.2637363 L35.8791209,86.2747253 Z M35.8131868,84.5714286 C35.4115559,84.7138414 34.9949124,84.8097063 34.5714286,84.8571429 C34.3426234,84.8813523 34.1175625,84.9330056 33.9010989,85.010989 C33.6983999,85.1046532 33.5556477,85.2931 33.5203695,85.5135888 C33.4850913,85.7340776 33.5619193,85.9576572 33.7252747,86.1098901 C33.920574,86.2568761 34.1629451,86.3272419 34.4065934,86.3076923 C34.6794287,86.3106121 34.9483228,86.2424418 35.1868132,86.1098901 C35.4061291,85.9909965 35.58285,85.8065921 35.6923077,85.5824176 C35.7856151,85.3410212 35.8268096,85.0826191 35.8131868,84.8241758 L35.8131868,84.5714286 Z" id="Shape" fill="#141515" fill-rule="nonzero"></path>
                    <polygon id="Rectangle-path" fill="#141515" fill-rule="nonzero" points="37.7582418 80.6043956 38.5164835 80.6043956 38.5164835 86.8241758 37.7582418 86.8241758"></polygon>
                    <path d="M42.6483516,86.2747253 C42.4071584,86.4871006 42.1323541,86.6579249 41.8351648,86.7802198 C41.5641353,86.8788513 41.2773991,86.9272613 40.989011,86.9230769 C40.5907818,86.9399814 40.2000613,86.8110437 39.8901099,86.5604396 C39.6293909,86.3255532 39.4847894,85.9881497 39.4945055,85.6373626 C39.4925467,85.4259697 39.5455617,85.2176967 39.6483516,85.032967 C39.7428975,84.8567266 39.878614,84.7059305 40.043956,84.5934066 C40.2121624,84.4798731 40.3977441,84.3945056 40.5934066,84.3406593 C40.8179466,84.2895868 41.0455144,84.2528823 41.2747253,84.2307692 C41.7366255,84.1887239 42.1931314,84.1003679 42.6373626,83.967033 C42.6373626,83.8681319 42.6373626,83.7912088 42.6373626,83.7692308 C42.6633729,83.5279578 42.5831544,83.2873023 42.4175824,83.1098901 C42.1708283,82.9175472 41.8614978,82.8235734 41.5494505,82.8461538 C41.2727927,82.8257567 40.9965586,82.8909786 40.7582418,83.032967 C40.5574886,83.20613 40.421812,83.4425949 40.3736264,83.7032967 L39.6263736,83.6043956 C39.6759307,83.3261299 39.7887185,83.0629583 39.956044,82.8351648 C40.1327306,82.624998 40.3650454,82.468852 40.6263736,82.3846154 C40.9549625,82.2710834 41.3007309,82.2153144 41.6483516,82.2197802 C41.9650052,82.209106 42.2810947,82.2537304 42.5824176,82.3516484 C42.7843103,82.4185815 42.9658365,82.5358172 43.1098901,82.6923077 C43.2305139,82.8427242 43.3134065,83.019813 43.3516484,83.2087912 C43.370433,83.4428471 43.370433,83.678032 43.3516484,83.9120879 L43.3516484,84.9340659 C43.3228455,85.3841551 43.3228455,85.8356252 43.3516484,86.2857143 C43.3866667,86.4750933 43.4535491,86.657162 43.5494505,86.8241758 L42.7472527,86.8241758 C42.6625109,86.6481997 42.6103854,86.458314 42.5934066,86.2637363 L42.6483516,86.2747253 Z M42.5824176,84.5714286 C42.1807867,84.7138414 41.7641432,84.8097063 41.3406593,84.8571429 C41.1118542,84.8813523 40.8867933,84.9330056 40.6703297,85.010989 C40.4676307,85.1046532 40.3248784,85.2931 40.2896002,85.5135888 C40.254322,85.7340776 40.33115,85.9576572 40.4945055,86.1098901 C40.6898047,86.2568761 40.9321759,86.3272419 41.1758242,86.3076923 C41.4486595,86.3106121 41.7175535,86.2424418 41.956044,86.1098901 C42.1753599,85.9909965 42.3520808,85.8065921 42.4615385,85.5824176 C42.5548458,85.3410212 42.5960404,85.0826191 42.5824176,84.8241758 L42.5824176,84.5714286 Z" id="Shape" fill="#141515" fill-rule="nonzero"></path>
                    <path d="M44.5274725,86.8241758 L44.5274725,82.3186813 L45.2087912,82.3186813 L45.2087912,83 C45.3230949,82.7588986 45.48801,82.5452587 45.6923077,82.3736264 C45.8370125,82.2719216 46.0099501,82.2181188 46.1868132,82.2197802 C46.46429,82.2263529 46.7344547,82.3100659 46.967033,82.4615385 L46.7032967,83.1758242 C46.534777,83.0713209 46.3411207,83.0143632 46.1428571,83.010989 C45.9796413,83.0101136 45.8209015,83.0643175 45.6923077,83.1648352 C45.555642,83.2706292 45.4556924,83.4167094 45.4065934,83.5824176 C45.3174718,83.870653 45.2730007,84.1708333 45.2747253,84.4725275 L45.2747253,86.8351648 L44.5274725,86.8241758 Z" id="Shape" fill="#141515" fill-rule="nonzero"></path>
                    <path d="M50.5164835,85.3626374 L51.3076923,85.4615385 C51.2104911,85.8966896 50.9659239,86.2848914 50.6153846,86.5604396 C50.2408151,86.8266369 49.7888892,86.9618284 49.3296703,86.9450549 C48.743581,86.977267 48.1716917,86.7573096 47.7582418,86.3406593 C47.34799,85.8713886 47.1387897,85.2595764 47.1758242,84.6373626 C47.1342436,83.9945405 47.3429472,83.3605542 47.7582418,82.8681319 C48.1492212,82.4496485 48.7023886,82.2211663 49.2747253,82.2417582 C49.8315326,82.2239164 50.3687152,82.4484106 50.7472527,82.8571429 C51.1528334,83.3371691 51.357529,83.9551922 51.3186813,84.5824176 C51.3186813,84.5824176 51.3186813,84.6923077 51.3186813,84.7912088 L47.956044,84.7912088 C47.9623033,85.1950988 48.1100814,85.5839885 48.3736264,85.8901099 C48.6178585,86.1506517 48.9616759,86.2945753 49.3186813,86.2857143 C49.5744531,86.2928941 49.8254731,86.2156572 50.032967,86.0659341 C50.2569601,85.8837537 50.4214897,85.6388724 50.5054945,85.3626374 L50.5164835,85.3626374 Z M48.010989,84.1318681 L50.5274725,84.1318681 C50.5215367,83.8237604 50.4218742,83.5247729 50.2417582,83.2747253 C50.0124327,82.9889623 49.6630016,82.8264362 49.2967033,82.8351648 C48.9644845,82.8262276 48.6430028,82.9532328 48.4065934,83.1868132 C48.1571021,83.4430364 48.0154925,83.7852597 48.010989,84.1428571 L48.010989,84.1318681 Z" id="Shape" fill="#141515" fill-rule="nonzero"></path>
                    <path d="M52.2637363,86.8241758 L52.2637363,82.3186813 L52.9450549,82.3186813 L52.9450549,82.956044 C53.2540311,82.4701521 53.7982891,82.1854633 54.3736264,82.2087912 C54.6298456,82.2049623 54.8841407,82.2535775 55.1208791,82.3516484 C55.3257619,82.4287726 55.5047641,82.5620721 55.6373626,82.7362637 C55.7564933,82.9039805 55.8388756,83.0949575 55.8791209,83.2967033 C55.9000169,83.5453493 55.9000169,83.79531 55.8791209,84.043956 L55.8791209,86.8131868 L55.1098901,86.8131868 L55.1098901,84.0769231 C55.1210991,83.8391854 55.0913622,83.6012899 55.021978,83.3736264 C54.9595263,83.2203664 54.8472612,83.0926165 54.7032967,83.010989 C54.5441465,82.91532 54.3615018,82.8658537 54.1758242,82.8681319 C53.8652123,82.8612303 53.5632974,82.9710176 53.3296703,83.1758242 C53.0532277,83.5013695 52.9257025,83.9277817 52.978022,84.3516484 L52.978022,86.8131868 L52.2637363,86.8241758 Z" id="Shape" fill="#141515" fill-rule="nonzero"></path>
                    <path d="M56.956044,87.1978022 L57.7032967,87.3076923 C57.7144684,87.5037723 57.805883,87.6866015 57.956044,87.8131868 C58.1866107,87.9655141 58.4604341,88.0387908 58.7362637,88.021978 C59.0261565,88.0412929 59.3147082,87.9681932 59.5604396,87.8131868 C59.7505247,87.6631646 59.8857335,87.4545567 59.9450549,87.2197802 C59.978339,86.8946224 59.978339,86.566916 59.9450549,86.2417582 C59.6443685,86.6199365 59.1864303,86.8387742 58.7032967,86.8351648 C58.1418887,86.8647029 57.6024608,86.6135189 57.2637363,86.1648352 C56.9208994,85.7014414 56.7429565,85.1366663 56.7582418,84.5604396 C56.7538246,84.1532736 56.832342,83.7494701 56.989011,83.3736264 C57.1278561,83.0306476 57.3648688,82.7362932 57.6703297,82.5274725 C57.9804431,82.3255823 58.3443454,82.2221574 58.7142857,82.2307692 C59.2323912,82.222882 59.7228327,82.4640158 60.032967,82.8791209 L60.032967,82.3406593 L60.7362637,82.3406593 L60.7362637,86.2307692 C60.7696625,86.7379764 60.6985991,87.246641 60.5274725,87.7252747 C60.3791763,88.022204 60.1406725,88.2645546 59.8461538,88.4175824 C59.5057711,88.5897031 59.1286299,88.6764455 58.7472527,88.6703297 C58.2877237,88.6880898 57.8341996,88.5612568 57.4505495,88.3076923 C57.1077896,88.0515542 56.9243051,87.6345439 56.967033,87.2087912 L56.956044,87.1978022 Z M57.5824176,84.4945055 C57.5418919,84.9547875 57.6665499,85.4144635 57.9340659,85.7912088 C58.1483496,86.0555412 58.4730003,86.2056922 58.8131868,86.1978022 C59.1533733,86.2056922 59.478024,86.0555412 59.6923077,85.7912088 C59.9591837,85.4225007 60.0840468,84.9698721 60.043956,84.5164835 C60.0767992,84.0723744 59.9480075,83.6313605 59.6813187,83.2747253 C59.4669032,83.0031603 59.1371073,82.8484413 58.7912088,82.8571429 C58.4529886,82.8553209 58.1327716,83.0093494 57.9230769,83.2747253 C57.6683805,83.6280142 57.5476323,84.0603703 57.5824176,84.4945055 Z" id="Shape" fill="#141515" fill-rule="nonzero"></path>
                    <path d="M64.8791209,86.8241758 L64.8791209,86.1648352 C64.5681725,86.6498814 64.0265308,86.9373682 63.4505495,86.9230769 C63.1934058,86.9250376 62.938753,86.8726091 62.7032967,86.7692308 C62.499791,86.6896053 62.3214134,86.556771 62.1868132,86.3846154 C62.0689169,86.2133666 61.9901324,86.0182811 61.956044,85.8131868 C61.9345053,85.5755787 61.9345053,85.3365092 61.956044,85.0989011 L61.956044,82.3076923 L62.7142857,82.3076923 L62.7142857,84.8021978 C62.6907218,85.0690779 62.6907218,85.3375155 62.7142857,85.6043956 C62.7572096,85.7935614 62.8663391,85.9611531 63.021978,86.0769231 C63.191793,86.1973857 63.3962904,86.2591208 63.6043956,86.2527473 C63.8324895,86.2542577 64.0566672,86.1934638 64.2527473,86.0769231 C64.4462544,85.9689554 64.5973616,85.7984754 64.6813187,85.5934066 C64.7760085,85.3104513 64.8170047,85.0122968 64.8021978,84.7142857 L64.8021978,82.2967033 L65.5604396,82.2967033 L65.5604396,86.8021978 L64.8791209,86.8241758 Z" id="Shape" fill="#141515" fill-rule="nonzero"></path>
                    <polygon id="Shape" fill="#141515" fill-rule="nonzero" points="69.3186813 86.8241758 69.3186813 80.6043956 73.5164835 80.6043956 73.5164835 81.3406593 70.1428571 81.3406593 70.1428571 83.2637363 73.0549451 83.2637363 73.0549451 84 70.1428571 84 70.1428571 86.8241758"></polygon>
                    <path d="M74.1978022,84.5714286 C74.1390357,83.8799722 74.3930593,83.198544 74.8901099,82.7142857 C75.2839029,82.3763436 75.7889238,82.1962586 76.3076923,82.2087912 C76.877323,82.1910377 77.4279952,82.4144989 77.8241758,82.8241758 C78.2392361,83.2824847 78.4530139,83.8881885 78.4175824,84.5054945 C78.4399693,84.9778147 78.3495638,85.4486767 78.1538462,85.8791209 C77.9852093,86.2094545 77.720986,86.4813364 77.3956044,86.6593407 C77.0595996,86.8453576 76.6807155,86.9400786 76.2967033,86.9340659 C75.7249602,86.9578209 75.1699249,86.7382026 74.7692308,86.3296703 C74.3521571,85.8469127 74.1428088,85.2188679 74.1868132,84.5824176 L74.1978022,84.5714286 Z M74.978022,84.5714286 C74.9408312,85.0347066 75.0736513,85.4956706 75.3516484,85.8681319 C75.5896425,86.1453737 75.9368154,86.3048942 76.3021978,86.3048942 C76.6675802,86.3048942 77.0147531,86.1453737 77.2527473,85.8681319 C77.5313527,85.4875784 77.6639497,85.0195888 77.6263736,84.5494505 C77.6573779,84.0953044 77.5205076,83.6455876 77.2417582,83.2857143 C77.001928,83.0155641 76.6579507,82.8609658 76.2967033,82.8609658 C75.9354559,82.8609658 75.5914785,83.0155641 75.3516484,83.2857143 C75.0762233,83.6552505 74.9435409,84.1118341 74.978022,84.5714286 Z" id="Shape" fill="#141515" fill-rule="nonzero"></path>
                    <path d="M79.3186813,86.8241758 L79.3186813,82.3186813 L80,82.3186813 L80,82.956044 C80.3089762,82.4701521 80.8532342,82.1854633 81.4285714,82.2087912 C81.6847907,82.2049623 81.9390858,82.2535775 82.1758242,82.3516484 C82.380707,82.4287726 82.5597092,82.5620721 82.6923077,82.7362637 C82.8114384,82.9039805 82.8938206,83.0949575 82.9340659,83.2967033 C82.9549619,83.5453493 82.9549619,83.79531 82.9340659,84.043956 L82.9340659,86.8131868 L82.1648352,86.8131868 L82.1648352,84.0769231 C82.1760442,83.8391854 82.1463072,83.6012899 82.0769231,83.3736264 C82.0144714,83.2203664 81.9022063,83.0926165 81.7582418,83.010989 C81.5990915,82.91532 81.4164468,82.8658537 81.2307692,82.8681319 C80.9201573,82.8612303 80.6182425,82.9710176 80.3846154,83.1758242 C80.1081728,83.5013695 79.9806476,83.9277817 80.032967,84.3516484 L80.032967,86.8131868 L79.3186813,86.8241758 Z" id="Shape" fill="#141515" fill-rule="nonzero"></path>
                    <path d="M87.0659341,86.8241758 L87.0659341,86.2527473 C86.7999392,86.6915076 86.3146386,86.9489279 85.8021978,86.9230769 C85.4502623,86.9253888 85.1057319,86.8220297 84.8131868,86.6263736 C84.5038244,86.4208433 84.2597756,86.1310354 84.1098901,85.7912088 C83.9372961,85.408042 83.8510122,84.9916284 83.8571429,84.5714286 C83.8507161,84.1544387 83.9253588,83.7401714 84.0769231,83.3516484 C84.2067621,83.0066526 84.4411174,82.710827 84.7472527,82.5054945 C85.047169,82.3080922 85.3992135,82.2047748 85.7582418,82.2087912 C86.2475827,82.1998832 86.7107148,82.4294 87,82.8241758 L87,80.6263736 L87.7582418,80.6263736 L87.7582418,86.8461538 L87.0659341,86.8241758 Z M84.6483516,84.6263736 C84.6119683,85.0879031 84.7404654,85.5473774 85.010989,85.9230769 C85.2160834,86.1895524 85.5318949,86.3474581 85.8681319,86.3516484 C86.1967948,86.3494749 86.5072307,86.2003044 86.7142857,85.9450549 C86.976071,85.5822505 87.1006753,85.1383476 87.0659341,84.6923077 C87.1055617,84.2149024 86.9815476,83.7382234 86.7142857,83.3406593 C86.504471,83.0680857 86.1791297,82.9094818 85.8351648,82.9120879 C85.5046658,82.9169425 85.1939069,83.070304 84.989011,83.3296703 C84.7492261,83.6977157 84.633687,84.1329127 84.6593407,84.5714286 L84.6483516,84.6263736 Z" id="Shape" fill="#141515" fill-rule="nonzero"></path>
                    <polygon id="Rectangle-path" fill="#1E46A0" fill-rule="nonzero" points="1.21978022 0.0659340659 86.8571429 0.0659340659 86.8571429 57.3516484 1.21978022 57.3516484"></polygon>
                    <polygon id="Shape" fill="#FAE015" points="44.6703297 8.40659341 47.1428571 8.40659341 45.1428571 9.9010989 45.9230769 12.2747253 43.9340659 10.8131868 41.956044 12.2747253 42.7362637 9.9010989 40.7362637 8.40659341 43.1978022 8.40659341 43.9340659 6.10989011"></polygon>
                    <polygon id="Shape" fill="#FAE015" points="44.7802198 46.5824176 47.2417582 46.5824176 45.2637363 48.0769231 46.021978 50.4395604 44.043956 48.978022 42.0659341 50.4395604 42.8461538 48.0769231 40.8461538 46.5824176 43.2967033 46.5824176 44.043956 44.2747253"></polygon>
                    <polygon id="Shape" fill="#FAE015" points="54.2307692 44.0549451 56.6923077 44.0549451 54.7032967 45.5494505 55.4725275 47.9010989 53.4945055 46.4505495 51.5054945 47.9010989 52.2967033 45.5494505 50.2857143 44.0549451 52.7472527 44.0549451 53.4945055 41.7362637"></polygon>
                    <polygon id="Shape" fill="#FAE015" points="54.2307692 10.9230769 56.6923077 10.9230769 54.7032967 12.4175824 55.4725275 14.7802198 53.4945055 13.3296703 51.5054945 14.7802198 52.2967033 12.4175824 50.2857143 10.9230769 52.7472527 10.9230769 53.4945055 8.61538462"></polygon>
                    <polygon id="Shape" fill="#FAE015" points="61.2417582 17.9340659 63.7032967 17.9340659 61.7252747 19.4285714 62.4945055 21.8021978 60.5164835 20.3406593 58.5274725 21.8021978 59.3076923 19.4285714 57.2967033 17.9340659 59.7692308 17.9340659 60.5164835 15.6263736"></polygon>
                    <polygon id="Shape" fill="#FAE015" points="61.2417582 37.1318681 63.7032967 37.1318681 61.7252747 38.6263736 62.4945055 40.989011 60.5164835 39.5384615 58.5274725 40.989011 59.3076923 38.6263736 57.2967033 37.1318681 59.7692308 37.1318681 60.5164835 34.8241758"></polygon>
                    <polygon id="Shape" fill="#FAE015" points="63.8681319 27.3956044 66.3406593 27.3956044 64.3516484 28.8791209 65.1208791 31.2527473 63.1428571 29.7912088 61.1538462 31.2527473 61.9450549 28.8791209 59.9340659 27.3956044 62.3956044 27.3956044 63.1428571 25.0769231"></polygon>
                    <polygon id="Shape" fill="#FAE015" points="35.032967 10.956044 37.5054945 10.956044 35.5164835 12.4395604 36.2857143 14.8021978 34.3076923 13.3516484 32.3186813 14.8021978 33.0989011 12.4395604 31.0989011 10.956044 33.5604396 10.956044 34.3076923 8.63736264"></polygon>
                    <polygon id="Shape" fill="#FAE015" points="28.2087912 17.967033 30.6813187 17.967033 28.6923077 19.4505495 29.4615385 21.8241758 27.4835165 20.3626374 25.5054945 21.8241758 26.2857143 19.4505495 24.2747253 17.967033 26.7362637 17.967033 27.4835165 15.6593407"></polygon>
                    <polygon id="Shape" fill="#FAE015" points="25.6813187 27.4175824 28.1428571 27.4175824 26.1648352 28.9010989 26.9340659 31.2747253 24.956044 29.8131868 22.978022 31.2747253 23.7472527 28.9010989 21.7472527 27.4175824 24.2087912 27.4175824 24.956044 25.1098901"></polygon>
                    <polygon id="Shape" fill="#FAE015" points="28.2087912 37.1538462 30.6813187 37.1538462 28.6923077 38.6483516 29.4615385 41.010989 27.4835165 39.5604396 25.5054945 41.010989 26.2857143 38.6483516 24.2747253 37.1538462 26.7362637 37.1538462 27.4835165 34.8461538"></polygon>
                    <polygon id="Shape" fill="#FAE015" points="35.1318681 44.0769231 37.5934066 44.0769231 35.6043956 45.5714286 36.3846154 47.9340659 34.4065934 46.4725275 32.4175824 47.9340659 33.1978022 45.5714286 31.1978022 44.0769231 33.6593407 44.0769231 34.4065934 41.7692308"></polygon>
                </g>
            </g>
        </g>
    </g>
</svg>