<?xml version="1.0" encoding="UTF-8"?>
<svg width="69px" height="79px" viewBox="0 0 69 79" version="1.1" xmlns="http://www.w3.org/2000/svg" xmlns:xlink="http://www.w3.org/1999/xlink">
    <!-- Generator: Sketch 52.4 (67378) - http://www.bohemiancoding.com/sketch -->
    <title>logo_2</title>
    <desc>Created with Sketch.</desc>
    <g id="Page-1" stroke="none" stroke-width="1" fill="none" fill-rule="evenodd">
        <g id="Front" transform="translate(-128.000000, -851.000000)">
            <g id="el" style="mix-blend-mode: darken;" transform="translate(35.000000, 851.000000)">
                <g id="logo_2" transform="translate(93.000000, 0.000000)">
                    <path d="M41.5054945,11.4835165 C47.9605896,12.0755895 54.1845342,14.1841249 59.6703297,17.6373626 L60.032967,17.8791209 C53.4232434,8.52114532 43.2649017,2.28337224 31.9291404,0.62184622 C20.5933791,-1.0396798 9.07220896,2.02044405 0.0549450549,9.08791209 C6.0088878,10.2713132 11.4536533,13.2603705 15.6483516,17.6483516 C23.3494811,12.7928564 32.44204,10.6250172 41.5054945,11.4835165 Z" id="Shape" fill="#0480BE"></path>
                    <path d="M67.2747253,37.8021978 C67.2747253,37.8021978 67.2747253,37.8021978 67.2747253,37.8571429 L67.2747253,37.8021978 Z" id="Shape" fill="#FFFFFF"></path>
                    <path d="M67.3076923,38.2637363 L67.2417582,37.4395604 C66.6230053,30.3994319 64.1551041,23.6477698 60.0879121,17.8681319 L59.7252747,17.6263736 C46.2755276,9.16319499 29.1640328,9.16319499 15.7142857,17.6263736 C20.4428779,22.5277554 23.3413322,28.9066831 23.9230769,35.6923077 C24.0765117,37.443532 24.0765117,39.2048196 23.9230769,40.956044 C23.2205728,48.5288445 19.6369169,55.5427397 13.9120879,60.5494505 L13.978022,60.4945055 C28.3551024,52.3084089 45.0731039,49.2110487 61.4285714,51.7032967 C59.7064632,53.1511669 57.8042182,54.3700812 55.7692308,55.3296703 C59.2926721,54.2092324 62.7426237,52.8696235 66.0989011,51.3186813 C67.2460242,47.0682859 67.6548937,42.652495 67.3076923,38.2637363 Z" id="Shape" fill="#000000" fill-rule="nonzero"></path>
                    <path d="M66.5714286,37.3186813 C61.2857143,33.7142857 56.8901099,31.5164835 47.6703297,30.7032967 C40.9042051,30.0520997 34.0821185,31.08655 27.8131868,33.7142857 C27.9723514,35.4395603 27.9723514,37.1758243 27.8131868,38.9010989 C27.0598822,47.0888882 22.733408,54.5275288 15.989011,59.2307692 C32.8021978,49.5604396 48.0879121,48.2417582 61.043956,50.2417582 C61.9010989,50.3736264 64.5604396,50.8351648 65.7912088,51.1648352 C66.7971937,46.6218537 67.060679,41.9459181 66.5714286,37.3186813 Z" id="Shape" fill="#FFFFFF"></path>
                    <polygon id="Shape" fill="#141515" fill-rule="nonzero" points="32.6043956 69.1208791 32.6043956 62.9010989 37.0989011 62.9010989 37.0989011 63.6263736 33.4285714 63.6263736 33.4285714 65.5384615 36.8681319 65.5384615 36.8681319 66.2637363 33.4285714 66.2637363 33.4285714 68.3846154 37.2527473 68.3846154 37.2527473 69.1208791"></polygon>
                    <path d="M41.3736264,67.6593407 L42.1648352,67.7582418 C42.067634,68.1933929 41.8230668,68.5815947 41.4725275,68.8571429 C41.097958,69.1233402 40.6460321,69.2585317 40.1868132,69.2417582 C39.6007239,69.2739703 39.0288345,69.0540129 38.6153846,68.6373626 C38.2051329,68.1680919 37.9959326,67.5562797 38.032967,66.9340659 C37.9913865,66.2912438 38.20009,65.6572574 38.6153846,65.1648352 C39.0063641,64.7463518 39.5595315,64.5178696 40.1318681,64.5384615 C40.6886755,64.5206197 41.2258581,64.7451139 41.6043956,65.1538462 C42.0099763,65.6338724 42.2146718,66.2518955 42.1758242,66.8791209 C42.1758242,66.8791209 42.1758242,66.989011 42.1758242,67.0879121 L38.8131868,67.0879121 C38.8194462,67.4918021 38.9672242,67.8806918 39.2307692,68.1868132 C39.4750014,68.447355 39.8188188,68.5912786 40.1758242,68.5824176 C40.431596,68.5895974 40.6826159,68.5123605 40.8901099,68.3626374 C41.114103,68.180457 41.2786326,67.9355757 41.3626374,67.6593407 L41.3736264,67.6593407 Z M38.8681319,66.4285714 L41.3846154,66.4285714 C41.3786796,66.1204637 41.2790171,65.8214762 41.0989011,65.5714286 C40.8695756,65.2856656 40.5201445,65.1231395 40.1538462,65.1318681 C39.8216274,65.1229309 39.5001456,65.2499361 39.2637363,65.4835165 C39.0128014,65.7352623 38.8673797,66.0732695 38.8571429,66.4285714 L38.8681319,66.4285714 Z" id="Shape" fill="#141515" fill-rule="nonzero"></path>
                    <path d="M42.8131868,67.7802198 L43.5714286,67.6593407 C43.6004902,67.9252136 43.7255177,68.1713615 43.9230769,68.3516484 C44.1569216,68.526061 44.4451161,68.6117404 44.7362637,68.5934066 C45.0139756,68.6130461 45.2898552,68.5353335 45.5164835,68.3736264 C45.6736027,68.252646 45.766718,68.0664154 45.7692308,67.8681319 C45.7717184,67.7007841 45.6834156,67.5452031 45.5384615,67.4615385 C45.2899225,67.3451419 45.0278216,67.2602359 44.7582418,67.2087912 C44.3602206,67.1217734 43.9704855,67.0004408 43.5934066,66.8461538 C43.1842174,66.6677141 42.9236354,66.2594689 42.9340659,65.8131868 C42.9307882,65.616969 42.9801157,65.4234532 43.0769231,65.2527473 C43.165967,65.0824533 43.2939867,64.9356072 43.4505495,64.8241758 C43.598392,64.7245619 43.7618028,64.6502842 43.9340659,64.6043956 C44.1484787,64.5435551 44.3705435,64.5139465 44.5934066,64.5164835 C44.9115102,64.5107666 45.2280056,64.5628952 45.5274725,64.6703297 C45.7618421,64.7485234 45.9681499,64.8937031 46.1208791,65.0879121 C46.2628303,65.2983653 46.3531847,65.5393104 46.3846154,65.7912088 L45.6373626,65.8901099 C45.6116135,65.6790725 45.5053087,65.4861489 45.3406593,65.3516484 C45.1386516,65.2098388 44.8947859,65.1401629 44.6483516,65.1538462 C44.3869489,65.1320582 44.1253605,65.1936084 43.9010989,65.3296703 C43.7623574,65.4193499 43.6761915,65.571166 43.6703297,65.7362637 C43.6717575,65.8329769 43.7067143,65.9261951 43.7692308,66 C43.8474432,66.0951344 43.9499799,66.1672898 44.0659341,66.2087912 L44.7362637,66.4065934 C45.1094915,66.5009442 45.4764985,66.6183864 45.8351648,66.7582418 C46.0407399,66.8398161 46.2169166,66.9815234 46.3406593,67.1648352 C46.4693796,67.3560147 46.5347322,67.5828266 46.5274725,67.8131868 C46.5258979,68.0676912 46.4494628,68.3161053 46.3076923,68.5274725 C46.1464143,68.7590339 45.9210955,68.9385251 45.6593407,69.043956 C45.3607783,69.17139 45.038879,69.2350212 44.7142857,69.2307692 C44.2393648,69.2637828 43.7671472,69.1360518 43.3736264,68.8681319 C43.0576435,68.5881027 42.8577488,68.2000718 42.8131868,67.7802198 Z" id="Shape" fill="#141515" fill-rule="nonzero"></path>
                    <path d="M49.1318681,68.4285714 L49.2417582,69.0989011 C49.0539851,69.140046 48.8625389,69.1621359 48.6703297,69.1648352 C48.4464818,69.1771819 48.2232187,69.1317724 48.021978,69.032967 C47.8798506,68.954137 47.7678003,68.8304953 47.7032967,68.6813187 C47.6200503,68.3886201 47.5866171,68.0840065 47.6043956,67.7802198 L47.6043956,65.1868132 L47,65.1868132 L47,64.5934066 L47.5604396,64.5934066 L47.5604396,63.4945055 L48.3186813,63.032967 L48.3186813,64.6043956 L49.0879121,64.6043956 L49.0879121,65.1978022 L48.3186813,65.1978022 L48.3186813,67.8351648 C48.2972265,67.9735322 48.2972265,68.1143799 48.3186813,68.2527473 C48.3453967,68.3166011 48.3915327,68.3704264 48.4505495,68.4065934 C48.5369801,68.4294173 48.627855,68.4294173 48.7142857,68.4065934 L49.1318681,68.4285714 Z" id="Shape" fill="#141515" fill-rule="nonzero"></path>
                    <path d="M49.8791209,63.7692308 L49.8791209,62.8901099 L50.6483516,62.8901099 L50.6483516,63.7692308 L49.8791209,63.7692308 Z M49.8791209,69.1098901 L49.8791209,64.6043956 L50.6483516,64.6043956 L50.6483516,69.1098901 L49.8791209,69.1098901 Z" id="Shape" fill="#141515" fill-rule="nonzero"></path>
                    <path d="M16.2307692,77.2637363 L16.3406593,77.9340659 C16.1528985,77.975285 15.9614448,77.9973758 15.7692308,78 C15.5453829,78.0123467 15.3221198,77.9669373 15.1208791,77.8681319 C14.9782237,77.7899694 14.8659853,77.6661201 14.8021978,77.5164835 C14.7189514,77.2237849 14.6855182,76.9191713 14.7032967,76.6153846 L14.7032967,74.021978 L14.1428571,74.021978 L14.1428571,73.4285714 L14.7032967,73.4285714 L14.7032967,72.3296703 L15.4615385,71.8681319 L15.4615385,73.4395604 L16.2307692,73.4395604 L16.2307692,74.032967 L15.4615385,74.032967 L15.4615385,76.6703297 C15.4400836,76.8086971 15.4400836,76.9495447 15.4615385,77.0879121 C15.4882538,77.151766 15.5343898,77.2055913 15.5934066,77.2417582 C15.6798373,77.2645821 15.7707122,77.2645821 15.8571429,77.2417582 L16.2307692,77.2637363 Z" id="Shape" fill="#141515" fill-rule="nonzero"></path>
                    <path d="M19.989011,77.9450549 L19.989011,77.2857143 C19.6780626,77.7707605 19.1364209,78.0582473 18.5604396,78.043956 C18.3032959,78.0459167 18.0486431,77.9934882 17.8131868,77.8901099 C17.6096811,77.8104845 17.4313035,77.6776501 17.2967033,77.5054945 C17.178807,77.3342457 17.1000225,77.1391602 17.0659341,76.9340659 C17.0443954,76.6964578 17.0443954,76.4573883 17.0659341,76.2197802 L17.0659341,73.4285714 L17.8241758,73.4285714 L17.8241758,75.9230769 C17.8006119,76.1899571 17.8006119,76.4583946 17.8241758,76.7252747 C17.8670998,76.9144405 17.9762292,77.0820322 18.1318681,77.1978022 C18.3016832,77.3182648 18.5061805,77.3799999 18.7142857,77.3736264 C18.9423796,77.3751369 19.1665573,77.3143429 19.3626374,77.1978022 C19.5561445,77.0898345 19.7072517,76.9193546 19.7912088,76.7142857 C19.8858986,76.4313305 19.9268949,76.1331759 19.9120879,75.8351648 L19.9120879,73.4175824 L20.6263736,73.4175824 L20.6263736,77.9230769 L19.989011,77.9450549 Z" id="Shape" fill="#141515" fill-rule="nonzero"></path>
                    <polygon id="Rectangle-path" fill="#141515" fill-rule="nonzero" points="21.8461538 71.7252747 22.6043956 71.7252747 22.6043956 77.9450549 21.8461538 77.9450549"></polygon>
                    <path d="M26.8791209,76.4945055 L27.6703297,76.5934066 C27.5731285,77.0285577 27.3285613,77.4167596 26.978022,77.6923077 C26.6034525,77.958505 26.1515266,78.0936965 25.6923077,78.0769231 C25.1062184,78.1091352 24.534329,77.8891777 24.1208791,77.4725275 C23.7106274,77.0032567 23.5014271,76.3914446 23.5384615,75.7692308 C23.496881,75.1264086 23.7055845,74.4924223 24.1208791,74 C24.512697,73.5827294 25.0652878,73.3544854 25.6373626,73.3736264 C26.19417,73.3557845 26.7313526,73.5802787 27.1098901,73.989011 C27.5181823,74.4718395 27.7230545,75.0943357 27.6813187,75.7252747 C27.6813187,75.7252747 27.6813187,75.8351648 27.6813187,75.9340659 L24.3186813,75.9340659 C24.3249407,76.3379559 24.4727188,76.7268456 24.7362637,77.032967 C24.9804959,77.2935089 25.3243133,77.4374324 25.6813187,77.4285714 C25.9370905,77.4357513 26.1881104,77.3585143 26.3956044,77.2087912 C26.6195975,77.0266108 26.7841271,76.7817295 26.8681319,76.5054945 L26.8791209,76.4945055 Z M24.3736264,75.2637363 L26.8901099,75.2637363 C26.8841741,74.9556285 26.7845116,74.6566411 26.6043956,74.4065934 C26.3750701,74.1208304 26.025639,73.9583043 25.6593407,73.967033 C25.3271219,73.9580958 25.0056401,74.0851009 24.7692308,74.3186813 C24.5223222,74.5721555 24.380917,74.9099569 24.3736264,75.2637363 Z" id="Shape" fill="#141515" fill-rule="nonzero"></path>
                    <path d="M29.8791209,77.9450549 L28.1648352,73.4395604 L28.967033,73.4395604 L29.9340659,76.1428571 C30.03663,76.4358974 30.1318681,76.7399267 30.2197802,77.0549451 C30.2857143,76.8131868 30.3846154,76.5274725 30.5054945,76.1978022 L31.5054945,73.4505495 L32.2857143,73.4505495 L30.5824176,77.956044 L29.8791209,77.9450549 Z" id="Shape" fill="#141515" fill-rule="nonzero"></path>
                    <path d="M32.978022,72.6043956 L32.978022,71.7252747 L33.7472527,71.7252747 L33.7472527,72.6043956 L32.978022,72.6043956 Z M32.978022,77.9450549 L32.978022,73.4395604 L33.7472527,73.4395604 L33.7472527,77.9450549 L32.978022,77.9450549 Z" id="Shape" fill="#141515" fill-rule="nonzero"></path>
                    <polygon id="Shape" fill="#141515" fill-rule="nonzero" points="34.9120879 77.9450549 34.9120879 71.7252747 35.6703297 71.7252747 35.6703297 75.2747253 37.4835165 73.4395604 38.4725275 73.4395604 36.7472527 75.1098901 38.6373626 77.9450549 37.7032967 77.9450549 36.2087912 75.6483516 35.6703297 76.1648352 35.6703297 77.9450549"></polygon>
                    <path d="M42.1978022,77.9450549 L42.1978022,77.2857143 C41.8868538,77.7707605 41.3452121,78.0582473 40.7692308,78.043956 C40.5120871,78.0459167 40.2574343,77.9934882 40.021978,77.8901099 C39.8184724,77.8104845 39.6400947,77.6776501 39.5054945,77.5054945 C39.3875983,77.3342457 39.3088137,77.1391602 39.2747253,76.9340659 C39.2531263,76.6964605 39.2531263,76.4573856 39.2747253,76.2197802 L39.2747253,73.4285714 L40.032967,73.4285714 L40.032967,75.9230769 C40.009346,76.1899545 40.009346,76.4583971 40.032967,76.7252747 C40.075891,76.9144405 40.1850204,77.0820322 40.3406593,77.1978022 C40.5104744,77.3182648 40.7149717,77.3799999 40.9230769,77.3736264 C41.1511708,77.3751369 41.3753485,77.3143429 41.5714286,77.1978022 C41.7649357,77.0898345 41.9160429,76.9193546 42,76.7142857 C42.0946898,76.4313305 42.1356861,76.1331759 42.1208791,75.8351648 L42.1208791,73.4175824 L42.8791209,73.4175824 L42.8791209,77.9230769 L42.1978022,77.9450549 Z" id="Shape" fill="#141515" fill-rule="nonzero"></path>
                    <path d="M46.4945055,77.9450549 L46.4945055,71.7252747 L47.2527473,71.7252747 L47.2527473,73.9230769 C47.5854385,73.5219849 48.0834315,73.2952563 48.6043956,73.3076923 C48.9057154,73.3004466 49.2040884,73.3684303 49.4725275,73.5054945 C49.7054749,73.6236612 49.8914358,73.8173705 50,74.0549451 C50.1196337,74.3779381 50.1719872,74.7219753 50.1538462,75.0659341 L50.1538462,77.9230769 L49.3846154,77.9230769 L49.3846154,75.0659341 C49.4106032,74.7654326 49.3201173,74.4664358 49.1318681,74.2307692 C48.9454192,74.047139 48.6897898,73.951278 48.4285714,73.967033 C48.2041317,73.9669645 47.9838694,74.0277265 47.7912088,74.1428571 C47.6000805,74.2487051 47.4493804,74.4148616 47.3626374,74.6153846 C47.2650418,74.8826142 47.2202572,75.1662502 47.2307692,75.4505495 L47.2307692,77.9120879 L46.4945055,77.9450549 Z" id="Shape" fill="#141515" fill-rule="nonzero"></path>
                    <path d="M54.4065934,76.4945055 L55.1978022,76.5934066 C55.100601,77.0285577 54.8560338,77.4167596 54.5054945,77.6923077 C54.130925,77.958505 53.6789991,78.0936965 53.2197802,78.0769231 C52.6336909,78.1091352 52.0618016,77.8891777 51.6483516,77.4725275 C51.2380999,77.0032567 51.0288996,76.3914446 51.0659341,75.7692308 C51.0243535,75.1264086 51.2330571,74.4924223 51.6483516,74 C52.0393311,73.5815166 52.5924985,73.3530344 53.1648352,73.3736264 C53.7216425,73.3557845 54.2588251,73.5802787 54.6373626,73.989011 C55.0456549,74.4718395 55.250527,75.0943357 55.2087912,75.7252747 C55.2087912,75.7252747 55.2087912,75.8351648 55.2087912,75.9340659 L51.8461538,75.9340659 C51.8524132,76.3379559 52.0001913,76.7268456 52.2637363,77.032967 C52.5079684,77.2935089 52.8517858,77.4374324 53.2087912,77.4285714 C53.464563,77.4357513 53.715583,77.3585143 53.9230769,77.2087912 C54.14707,77.0266108 54.3115996,76.7817295 54.3956044,76.5054945 L54.4065934,76.4945055 Z M51.9010989,75.2637363 L54.4175824,75.2637363 C54.4116466,74.9556285 54.3119841,74.6566411 54.1318681,74.4065934 C53.9025426,74.1208304 53.5531115,73.9583043 53.1868132,73.967033 C52.8545944,73.9580958 52.5331126,74.0851009 52.2967033,74.3186813 C52.0497947,74.5721555 51.9083895,74.9099569 51.9010989,75.2637363 Z" id="Shape" fill="#141515" fill-rule="nonzero"></path>
                    <path d="M59.0879121,77.3956044 C58.8467188,77.6079797 58.5719145,77.778804 58.2747253,77.9010989 C58.0036957,77.9997304 57.7169595,78.0481404 57.4285714,78.043956 C57.0303422,78.0608606 56.6396217,77.9319228 56.3296703,77.6813187 C56.0689514,77.4464323 55.9243499,77.1090289 55.9340659,76.7582418 C55.9321072,76.5468488 55.9851221,76.3385758 56.0879121,76.1538462 C56.182458,75.9776057 56.3181745,75.8268096 56.4835165,75.7142857 C56.6517229,75.6007523 56.8373045,75.5153847 57.032967,75.4615385 C57.2575462,75.410668 57.4851012,75.3739655 57.7142857,75.3516484 C58.1761859,75.309603 58.6326918,75.221247 59.0769231,75.0879121 C59.0769231,74.989011 59.0769231,74.9120879 59.0769231,74.8901099 C59.1029334,74.6488369 59.0227149,74.4081814 58.8571429,74.2307692 C58.6099043,74.0393622 58.3009403,73.9454998 57.989011,73.967033 C57.7123531,73.9466358 57.436119,74.0118577 57.1978022,74.1538462 C56.997049,74.3270091 56.8613724,74.5634741 56.8131868,74.8241758 L56.0659341,74.7252747 C56.1154911,74.4470091 56.228279,74.1838375 56.3956044,73.956044 C56.572291,73.7458771 56.8046058,73.5897311 57.0659341,73.5054945 C57.3945229,73.3919626 57.7402913,73.3361935 58.0879121,73.3406593 C58.4045776,73.3297592 58.7207062,73.3743891 59.021978,73.4725275 C59.2238707,73.5394606 59.405397,73.6566963 59.5494505,73.8131868 C59.6700743,73.9636033 59.7529669,74.1406921 59.7912088,74.3296703 C59.8099935,74.5637263 59.8099935,74.7989111 59.7912088,75.032967 L59.7912088,76.0549451 C59.762406,76.5050342 59.762406,76.9565043 59.7912088,77.4065934 C59.8262271,77.5959725 59.8931095,77.7780411 59.989011,77.9450549 L59.1868132,77.9450549 C59.1020713,77.7690788 59.0499458,77.5791931 59.032967,77.3846154 L59.0879121,77.3956044 Z M59.021978,75.6923077 C58.6203201,75.8346277 58.2036874,75.9304901 57.7802198,75.978022 C57.5514146,76.0022314 57.3263537,76.0538847 57.1098901,76.1318681 C56.9071911,76.2255323 56.7644389,76.4139791 56.7291607,76.6344679 C56.6938825,76.8549567 56.7707105,77.0785363 56.9340659,77.2307692 C57.1293652,77.3777552 57.3717363,77.4481211 57.6153846,77.4285714 C57.8882199,77.4314912 58.157114,77.3633209 58.3956044,77.2307692 C58.6149204,77.1118756 58.7916412,76.9274712 58.9010989,76.7032967 C58.9944063,76.4619003 59.0356008,76.2034982 59.021978,75.9450549 L59.021978,75.6923077 Z" id="Shape" fill="#141515" fill-rule="nonzero"></path>
                    <polygon id="Shape" fill="#141515" fill-rule="nonzero" points="61 77.9450549 61 71.7252747 61.7582418 71.7252747 61.7582418 75.2747253 63.5714286 73.4395604 64.5604396 73.4395604 62.8351648 75.1098901 64.7362637 77.9450549 63.7912088 77.9450549 62.2967033 75.6483516 61.7582418 76.1648352 61.7582418 77.9450549"></polygon>
                    <path d="M65.032967,76.5714286 L65.7912088,76.4505495 C65.8202704,76.7164224 65.9452979,76.9625703 66.1428571,77.1428571 C66.3767018,77.3172698 66.6648963,77.4029492 66.956044,77.3846154 C67.2324463,77.4074446 67.5082057,77.3336499 67.7362637,77.1758242 C67.8933829,77.0548438 67.9864982,76.8686132 67.989011,76.6703297 C67.9914986,76.5029819 67.9031959,76.3474009 67.7582418,76.2637363 C67.5097027,76.1473397 67.2476018,76.0624337 66.978022,76.010989 C66.5800149,75.923918 66.1902843,75.8025868 65.8131868,75.6483516 C65.4039977,75.4699119 65.1434156,75.0616667 65.1538462,74.6153846 C65.1505684,74.4191668 65.199896,74.225651 65.2967033,74.0549451 C65.3857473,73.8846511 65.5137669,73.737805 65.6703297,73.6263736 C65.8181722,73.5267597 65.981583,73.452482 66.1538462,73.4065934 C66.368259,73.3457529 66.5903237,73.3161443 66.8131868,73.3186813 C67.1312904,73.3129644 67.4477858,73.3650931 67.7472527,73.4725275 C67.9816223,73.5507212 68.1879302,73.6959009 68.3406593,73.8901099 C68.4826105,74.1005631 68.5729649,74.3415083 68.6043956,74.5934066 L67.8571429,74.6923077 C67.8313938,74.4812703 67.7250889,74.2883467 67.5604396,74.1538462 C67.3584318,74.0120366 67.1145661,73.9423607 66.8681319,73.956044 C66.6067291,73.9342561 66.3451408,73.9958062 66.1208791,74.1318681 C65.9821376,74.2215477 65.8959717,74.3733638 65.8901099,74.5384615 C65.892421,74.6350056 65.9272711,74.7279395 65.989011,74.8021978 C66.0672234,74.8973322 66.1697601,74.9694877 66.2857143,75.010989 L66.956044,75.2087912 C67.3292718,75.303142 67.6962787,75.4205842 68.0549451,75.5604396 C68.2605201,75.6420139 68.4366968,75.7837212 68.5604396,75.967033 C68.6891598,76.1582125 68.7545124,76.3850244 68.7472527,76.6153846 C68.7456781,76.869889 68.669243,77.1183031 68.5274725,77.3296703 C68.3661945,77.5612317 68.1408757,77.7407229 67.8791209,77.8461538 C67.5804632,77.9732784 67.2586297,78.0368966 66.9340659,78.032967 C66.459145,78.0659806 65.9869275,77.9382496 65.5934066,77.6703297 C65.2749897,77.3875865 65.0748696,76.9951941 65.032967,76.5714286 Z" id="Shape" fill="#141515" fill-rule="nonzero"></path>
                </g>
            </g>
        </g>
    </g>
</svg>