<svg xmlns="http://www.w3.org/2000/svg" xmlns:xlink="http://www.w3.org/1999/xlink" viewBox="0 0 100 100"><defs><style>.cls-1{fill:url(#linear-gradient);}.cls-2{fill:#231f20;}</style><linearGradient id="linear-gradient" y1="50" x2="100" y2="50" gradientUnits="userSpaceOnUse"><stop offset="0" stop-color="#52605b"/><stop offset="0.49" stop-color="#677f77"/><stop offset="1" stop-color="#81998f"/></linearGradient></defs><title>Küberhügieen</title><g id="Layer_2" data-name="Layer 2"><g id="Layer_1-2" data-name="Layer 1"><path class="cls-1" d="M50,0,1.79,48.21,0,50l50,50,50-50ZM7.14,50,50,7.14,92.86,50,50,92.86Z"/><path class="cls-2" d="M50,34.7a15.3,15.3,0,0,0,0,30.6,11.3,11.3,0,0,0,4.4-.76l-.77-2.68a11.14,11.14,0,0,1-3.63.57A12.34,12.34,0,1,1,62.62,50.19a12.84,12.84,0,0,1-1.91,6.5,2.83,2.83,0,0,1-2.1,1,1.46,1.46,0,0,1-1-.38,2.31,2.31,0,0,1-.38-1.53V42.35H54.4v1.7A8,8,0,0,0,49,42,8,8,0,1,0,49,58a8.23,8.23,0,0,0,5.35-2,4.6,4.6,0,0,0,1.16,3.16,4.15,4.15,0,0,0,3.06,1.15A5.19,5.19,0,0,0,63,58a14.56,14.56,0,0,0,2.29-8A15.34,15.34,0,0,0,50,34.7Zm-.77,20.66A5.36,5.36,0,0,1,49,44.64a5.6,5.6,0,0,1,5.36,4V51.4A5.2,5.2,0,0,1,49.23,55.36Z"/></g></g></svg>