<svg xmlns="http://www.w3.org/2000/svg" xmlns:xlink="http://www.w3.org/1999/xlink" viewBox="0 0 100 100"><defs><style>.cls-1{fill:url(#linear-gradient);}.cls-2{fill:#231f20;}</style><linearGradient id="linear-gradient" x1="-0.6" y1="50" x2="100.6" y2="50" gradientUnits="userSpaceOnUse"><stop offset="0" stop-color="#be2132"/><stop offset="0.19" stop-color="#be2237"/><stop offset="0.41" stop-color="#bd2345"/><stop offset="0.65" stop-color="#bd265d"/><stop offset="0.9" stop-color="#bc297d"/><stop offset="1" stop-color="#bb2b8d"/></linearGradient></defs><title>Abi kutsumine</title><g id="Layer_2" data-name="Layer 2"><g id="Layer_1-2" data-name="Layer 1"><path class="cls-1" d="M50,0,1.79,48.21,0,50l50,50,50-50ZM7.14,50,50,7.14,92.86,50,50,92.86Z"/><path class="cls-2" d="M67.16,40.91c-.4-2.78-2.23-4.71-3.84-6.41l-1.16-1.22L52.29,43l3.16,3.12L43.87,57.58l-3.09-3.2L31,64l.79.81a18,18,0,0,0,4.91,3.79,6.22,6.22,0,0,0,2.74.63,7.15,7.15,0,0,0,1-.08A17.28,17.28,0,0,0,46.36,67,51.56,51.56,0,0,0,61.51,53.74a28.22,28.22,0,0,0,5.14-8.85A9,9,0,0,0,67.16,40.91ZM37.66,66.55A13.8,13.8,0,0,1,34.19,64l6.55-6.41,3.1,3.22L58.67,46.06,55.53,43l6.57-6.44c1.35,1.43,2.54,2.84,2.81,4.71a6.91,6.91,0,0,1-.42,3,26,26,0,0,1-4.76,8.12A49.23,49.23,0,0,1,45.26,65a15,15,0,0,1-5.16,1.92A4.06,4.06,0,0,1,37.66,66.55Z"/><path class="cls-2" d="M39.22,41.11a11.69,11.69,0,0,1,8.32-3.37l0-2.11c-7.51-.36-14.27,6.35-14,13.73l2.13,0A11.59,11.59,0,0,1,39.22,41.11Z"/><path class="cls-2" d="M38.71,49.42l2,0a6.88,6.88,0,0,1,6.73-6.58l0-2.07C42.38,40.53,38.38,45.34,38.71,49.42Z"/></g></g></svg>