<svg xmlns="http://www.w3.org/2000/svg" xmlns:xlink="http://www.w3.org/1999/xlink" viewBox="0 0 100 100"><defs><style>.cls-1{fill:#231f20;}.cls-2{fill:url(#linear-gradient);}</style><linearGradient id="linear-gradient" x1="-0.6" y1="50" x2="100.6" y2="50" gradientUnits="userSpaceOnUse"><stop offset="0" stop-color="#6e4b9e"/><stop offset="0.08" stop-color="#6e4b9e"/><stop offset="0.3" stop-color="#6c50a2"/><stop offset="0.58" stop-color="#6660ac"/><stop offset="0.88" stop-color="#5c79bc"/><stop offset="1" stop-color="#5c79bc"/></linearGradient></defs><title>Elektriga varustamise katkemine</title><g id="Layer_2" data-name="Layer 2"><g id="Layer_1-2" data-name="Layer 1"><path class="cls-1" d="M50,27.71A22.29,22.29,0,1,0,72.29,50,22.29,22.29,0,0,0,50,27.71ZM30.2,50A19.8,19.8,0,0,1,63.11,35.16L49.84,48.43,51.78,34,39.1,56l3.64-.45-7.58,7.58A19.77,19.77,0,0,1,30.2,50Zm21.47,3.79.26-1.28-9.34,1.15,6.07-10.53-1,7.73,8.83-1.11L50.58,59ZM64,64a19.79,19.79,0,0,1-27.07.87L46.77,55l2.8-.34-2.92,14L60.17,47.4l-6.6.83,11.3-11.3A19.79,19.79,0,0,1,64,64Z"/><path class="cls-2" d="M50,0,1.79,48.21,0,50l50,50,50-50ZM7.14,50,50,7.14,92.86,50,50,92.86Z"/></g></g></svg>