<svg xmlns="http://www.w3.org/2000/svg" xmlns:xlink="http://www.w3.org/1999/xlink" viewBox="0 0 100 100"><defs><style>.cls-1{fill:url(#linear-gradient);}.cls-2{fill:#231f20;}</style><linearGradient id="linear-gradient" x1="-0.6" y1="50" x2="100.61" y2="50" gradientUnits="userSpaceOnUse"><stop offset="0" stop-color="#280f1b"/><stop offset="1" stop-color="#935d25"/></linearGradient></defs><title>Erakordsed ilmastikuolud</title><g id="Layer_2" data-name="Layer 2"><g id="Layer_1-2" data-name="Layer 1"><path class="cls-1" d="M50,0,1.79,48.21,0,50l50,50,50-50ZM7.14,50,50,7.14,92.86,50,50,92.86Z"/><path class="cls-2" d="M61.76,44.15H52a1.59,1.59,0,0,0-1.56.92c-.38.73-.78,1.46-1.18,2.19L43.42,58l-.34.66-.92,1.78h6.06L43,71.88l-.32.86,1.53,1.1L62.66,53.56H55.32ZM57.67,55.77,47.88,66.55l3.77-8.3H45.81l5.35-9.94c.36-.65.71-1.3,1.05-2h5.36l-6.44,9.41Z"/><path class="cls-2" d="M60.48,35.56c-.6-3.44-3.94-6.08-8-6.08h-3A8.34,8.34,0,0,0,43,32.41H40c-4.44,0-8.05,3.22-8.05,7.18s3.61,7.18,8.05,7.18a8.4,8.4,0,0,0,6.66,3.15V47.71a6.06,6.06,0,0,1-5.15-2.63l-.32-.52H40c-3.22,0-5.84-2.23-5.84-5s2.62-5,5.84-5h3l.44,0,.62,0,.36-.52a6.14,6.14,0,0,1,5-2.47h3c3.22,0,5.84,2.23,5.84,5v1.1h1.93c3.23,0,5.85,2.23,5.85,5s-2.62,5-5.85,5v2.21c4.45,0,8.06-3.23,8.06-7.18S64.84,35.64,60.48,35.56Z"/></g></g></svg>