<svg xmlns="http://www.w3.org/2000/svg" xmlns:xlink="http://www.w3.org/1999/xlink" viewBox="0 0 100 100"><defs><style>.cls-1{fill:url(#linear-gradient);}.cls-2{fill:#231f20;}</style><linearGradient id="linear-gradient" x1="-0.6" y1="50" x2="100.6" y2="50" gradientUnits="userSpaceOnUse"><stop offset="0" stop-color="#0b8d47"/><stop offset="0.76" stop-color="#479e43"/><stop offset="1" stop-color="#5ba442"/></linearGradient></defs><title>Evakuatsioon</title><g id="Layer_2" data-name="Layer 2"><g id="Layer_1-2" data-name="Layer 1"><path class="cls-1" d="M50,0,1.79,48.21,0,50l50,50,50-50ZM7.14,50,50,7.14,92.86,50,50,92.86Z"/><path class="cls-2" d="M35.09,28.11V63.32a2.73,2.73,0,0,0,0,4.37V71H55.65a2.39,2.39,0,0,0,.23.22,2.76,2.76,0,0,0,1.76.64l.29,0a2.76,2.76,0,0,0,1.7-.84H66V28.11Zm2.53,2.53H63.49v9.63a0,0,0,0,0,0,0,2.4,2.4,0,0,0-3.24,1,8.28,8.28,0,0,0-.46.89l-1.54,3-.78-.4-2-1a3.8,3.8,0,0,0,2.61-3.53,3.62,3.62,0,0,0-1-2.65,4,4,0,0,0-2.84-1.18h0a3.74,3.74,0,0,0-3.76,3.75,3.81,3.81,0,0,0,.81,2.38,1.83,1.83,0,0,0-.39.09c-2,.67-4.07,1.33-6.1,2a3,3,0,0,0-1.93,1.78c-.74,1.83-1.53,3.63-2.3,5.45l-.44,1A2.75,2.75,0,0,0,39.93,55a2.13,2.13,0,0,0,1.23,1.21,2.34,2.34,0,0,0,3.21-1.52c.2-.48.43-1,.64-1.46a32.14,32.14,0,0,0,1.45-3.62,1.24,1.24,0,0,1,.65-.81c-1.67,4-3.35,8-5,12a.54.54,0,0,1-.21.14l-4,1.31-.27.09ZM51.7,55.58l1.45.62c1.13.48,2.19.93,3.31,1.3.8.27,1.07.67,1.16,1.67.22,2.45.44,4.91.68,7.36l.19,2,0,.52a.94.94,0,0,1-.82,1,.85.85,0,0,1-.64-.2.88.88,0,0,1-.33-.57l-.06-.7c-.2-2.31-.41-4.62-.58-6.93a2.68,2.68,0,0,0-1.92-2.72,32.37,32.37,0,0,1-3.32-1.33l-.77-.35a2.12,2.12,0,0,0-.78-.17A1.51,1.51,0,0,0,48,58l-1.17,2.42c-.38.78-.77,1.56-1.14,2.36a2,2,0,0,1-1.26,1.14c-1.32.41-2.64.85-4,1.28-.94.32-1.87.61-2.8.91l-.4.13a1.26,1.26,0,0,1-.92,0,.86.86,0,0,1-.39-.5c-.2-.7.39-1,.77-1.13l.94-.31.85-.29c1.34-.43,2.68-.85,4-1.31a2.26,2.26,0,0,0,1.31-1.13q2.55-6,5.06-12l.6-1.41a2.16,2.16,0,0,0,.1-.43l.25-1.74-1.47.49a5.41,5.41,0,0,1-.69.19,3.54,3.54,0,0,0-3,2.44,29.94,29.94,0,0,1-1.38,3.4c-.22.5-.44,1-.65,1.48-.31.71-.53.62-.75.52s-.19-.14-.2-.17a1.08,1.08,0,0,1,.1-.73l.46-1c.77-1.82,1.55-3.65,2.31-5.48a1.06,1.06,0,0,1,.74-.7q3.06-1,6.11-2a1.69,1.69,0,0,1,1.41.11c1.24.65,2.5,1.28,3.79,1.93l2.46,1.25,2.2-4.26.23-.46a7.79,7.79,0,0,1,.39-.76.53.53,0,0,1,.72-.27.5.5,0,0,1,.19.72q-1.4,2.8-2.83,5.58c-.36.68-.52.73-1.23.39l-2.29-1.16-1.9-1-3.73,8.74Zm1.14-14.1a1.9,1.9,0,0,1-.54-1.37,1.83,1.83,0,0,1,1.86-1.86h0a2.14,2.14,0,0,1,1.49.61,1.76,1.76,0,0,1,.5,1.28A1.89,1.89,0,0,1,54.25,42,2.06,2.06,0,0,1,52.84,41.48Zm-15.22,27V68.1a.61.61,0,0,0,.18,0L41,67l4-1.28a3.86,3.86,0,0,0,2.4-2.13c.37-.79.74-1.57,1.12-2.34L49.57,59l.53.24a37.24,37.24,0,0,0,3.51,1.41c.45.14.55.24.62,1q.24,3.39.57,6.79Zm25.87,0h-3.1l-.2-2.16c-.23-2.45-.47-4.9-.67-7.35a3.42,3.42,0,0,0-2.47-3.29c-1-.36-2.07-.78-3.15-1.25l-.59-.25,2.18-5.12.08,0c.8.42,1.56.81,2.33,1.18a2.52,2.52,0,0,0,3.74-1.22c.63-1.2,1.25-2.42,1.85-3.63Z"/></g></g></svg>