<svg xmlns="http://www.w3.org/2000/svg" xmlns:xlink="http://www.w3.org/1999/xlink" viewBox="0 0 100 100"><defs><style>.cls-1{fill:url(#linear-gradient);}</style><linearGradient id="linear-gradient" x1="-0.6" y1="50" x2="100.6" y2="50" gradientUnits="userSpaceOnUse"><stop offset="0" stop-color="#25408f"/><stop offset="0.01" stop-color="#25408f"/><stop offset="1" stop-color="#106c9b"/></linearGradient></defs><title>Iseseisev hakkamasaamine elutähtsate teenuste katkemisel</title><g id="Layer_2" data-name="Layer 2"><g id="Layer_1-2" data-name="Layer 1"><path class="cls-1" d="M50,0,1.79,48.21,0,50l50,50,50-50ZM7.14,50,50,7.14,92.86,50,50,92.86Z"/><path d="M70.36,62.19a3.36,3.36,0,0,0-2.63-.93H66l.27-.22a3.17,3.17,0,0,0,.59-4.16l-1.59-2.45c-1.56-2.41-3.18-4.9-4.91-7.25-.13-.19-.28-.37-.42-.55v0h0a11.82,11.82,0,0,0-.88-1l-.3-.28c-.21-.21-.43-.41-.65-.6l-.37-.29c-.22-.17-.44-.33-.67-.48l-.39-.26c-.24-.15-.49-.3-.75-.43a3.9,3.9,0,0,0-.35-.19,9.33,9.33,0,0,0-1.12-.5h0a9.84,9.84,0,0,0-1.2-.38c-.12,0-.25-.06-.38-.09l-.6-.14a9.08,9.08,0,0,0-2.47-17.81,9.07,9.07,0,0,0-6.51,15.45,9.1,9.1,0,0,0,4.18,2.42,10.88,10.88,0,0,0-1.12.3l-.32.11c-.3.1-.6.21-.89.34l-.37.16c-.32.16-.65.32-1,.5-.06,0-.12.06-.17.1a10.44,10.44,0,0,0-1.07.71l-.28.22c-.26.2-.51.42-.75.64l-.29.26a11.84,11.84,0,0,0-.91,1l-.25.29-.11,0v.18a78,78,0,0,0-6.14,9L33,57.06a3.13,3.13,0,0,0,.81,4.08l.16.13H32.27a4.48,4.48,0,0,0-2.09.5,2,2,0,0,0,0,3.65,4.54,4.54,0,0,0,2.09.48q10.11,0,20.23,0H68a3.16,3.16,0,0,0,2.4-.91A1.93,1.93,0,0,0,70.36,62.19Zm-10.42-9.3V49.13c1.42,2,2.77,4.08,4.08,6.1l1.61,2.47a1.7,1.7,0,0,1-.35,2.24,2.07,2.07,0,0,1-2.48.19l-5.28-4a1.5,1.5,0,0,1-.61-1.83,2,2,0,0,1,1.71-1.39h1.32Zm-3.32,4.4c1.74,1.32,3.47,2.65,5.22,4H52v-.94c0-2.86,0-5.72,0-8.58.9-.42,1.81-.82,2.72-1.21l3.75-1.65v2.53a3.43,3.43,0,0,0-3,2.4A3,3,0,0,0,56.62,57.29ZM44.33,38.6a7.6,7.6,0,0,1,5.39-12.93h.05a7.6,7.6,0,0,1,0,15.2h0A7.6,7.6,0,0,1,44.33,38.6ZM40.69,61.26H38l1.91-1.45,3.25-2.47a3,3,0,0,0,1.24-3.25,3.39,3.39,0,0,0-2.58-2.62l-.39-.06V48.88l6.47,2.85v9.53H40.69ZM34.3,57.84l.78-1.27c1.53-2.48,3.1-5,4.88-7.4v3.64l.7,0H41a2.27,2.27,0,0,1,.48,0A1.91,1.91,0,0,1,43,54.43a1.51,1.51,0,0,1-.68,1.72C41.2,57,40.11,57.8,39,58.63l-2,1.51A1.9,1.9,0,0,1,34.8,60,1.67,1.67,0,0,1,34.3,57.84Zm35,6.16a1.7,1.7,0,0,1-1.33.45H58.52q-13.11,0-26.24,0a3.06,3.06,0,0,1-1.38-.31.63.63,0,0,1-.4-.52.66.66,0,0,1,.4-.53,3,3,0,0,1,1.38-.31c2.8,0,5.61,0,8.41,0h8.72v-12l-7.92-3.5a11.08,11.08,0,0,1,17,0l-4.39,1.93c-.94.41-1.87.81-2.79,1.24a1.43,1.43,0,0,0-.82,1.18c0,2.91,0,5.82,0,8.73v1.45a1.23,1.23,0,0,0,.08.38l.13.51.76.05c.18,0,.37,0,.56,0h15.7a1.94,1.94,0,0,1,1.55.47C69.57,63.51,69.57,63.69,69.28,64Z"/></g></g></svg>