<svg xmlns="http://www.w3.org/2000/svg" xmlns:xlink="http://www.w3.org/1999/xlink" viewBox="0 0 100 100"><defs><style>.cls-1{fill:url(#linear-gradient);}.cls-2{fill:#231f20;}</style><linearGradient id="linear-gradient" x1="-0.6" y1="50" x2="100.6" y2="50" gradientUnits="userSpaceOnUse"><stop offset="0" stop-color="#3b7949"/><stop offset="0.02" stop-color="#3b7949"/><stop offset="0.89" stop-color="#ddd68e"/><stop offset="1" stop-color="#ddd68e"/></linearGradient></defs><title>Käitumine tsiviilisikuna relvakonflikti ajal</title><g id="Layer_2" data-name="Layer 2"><g id="Layer_1-2" data-name="Layer 1"><path class="cls-1" d="M50,0,1.79,48.21,0,50l50,50,50-50ZM7.14,50,50,7.14,92.86,50,50,92.86Z"/><path class="cls-2" d="M68.86,56.61A3.36,3.36,0,0,0,67.15,54l-2.4-1,2.34-7.7-1.65-1.87L70,31.61l-3.78-1.47-.24.63-.72-.29-1.18,3.06.73.28-3.22,8.44-1.15.81-2.7,7.08-.07,0a5.39,5.39,0,0,1-1-.63c-.14-.24-.28-.52-.42-.82a15.8,15.8,0,0,0,1.61-3,2.77,2.77,0,0,0,.89-1.35,18,18,0,0,0,.63-2.91h1.18l.22-.65c.3-.89.55-4.08-.45-5.34-.18-.53-.32-1.11-.47-1.72-.53-2.11-1.12-4.5-3.29-5.9-3.3-2.12-10-2.12-13.32,0-2.17,1.4-2.77,3.79-3.29,5.9-.15.61-.29,1.19-.47,1.72-1,1.26-.75,4.45-.45,5.34l.21.65h1.11a11.87,11.87,0,0,0,.74,3.15,2.71,2.71,0,0,0,.8,1.11,16.31,16.31,0,0,0,1.65,3,7.29,7.29,0,0,1-.39.79,6.19,6.19,0,0,1-1,.63L32.64,54A3.27,3.27,0,0,0,31,56.59L29.6,66.68H70.23ZM62,44.28l1.15-.81L67,33.22l.25-.63.24.1L63.25,43.84,65,45.78,63,52.3l-2.09-.85-1.43-.59Zm-3.11-7.7a6.61,6.61,0,0,1,.24,2.9H40.73A6.77,6.77,0,0,1,41,36.6l.18-.15.09-.25c.23-.66.41-1.38.58-2.08.48-1.93.93-3.76,2.47-4.75,2.69-1.74,8.59-1.74,11.28,0,1.53,1,2,2.81,2.47,4.75.17.7.35,1.42.58,2.08l0,.21ZM43.48,44.46l-.24-.17a1,1,0,0,1-.37-.46,9.65,9.65,0,0,1-.6-2.45H57.48A15.94,15.94,0,0,1,57,43.74a1,1,0,0,1-.41.55l-.24.17-.1.28A16,16,0,0,1,54.43,48l-.17.23-.44.44a3.92,3.92,0,0,1-1.69,1.11H47.71A3.89,3.89,0,0,1,46,48.66l-.47-.45L45.4,48a14.25,14.25,0,0,1-1.81-3.27Zm11.1,6.92L52,52.9H47.86l-2.6-1.52c.13-.19.26-.37.37-.56a4.61,4.61,0,0,0,1.82.83l4.77,0,.18,0a4.47,4.47,0,0,0,1.8-.83C54.32,51,54.44,51.19,54.58,51.38ZM31.77,64.78l1.09-8a1.55,1.55,0,0,1,.55-1.1L42.59,52l4.76,2.79H52.5l2.13-1.25L39.47,64.78Zm11.78,0h-.9L59,52.7l.1,0,.25.1Zm3.13,0L61.35,53.67l2.85,1.16,2.17.89A1.47,1.47,0,0,1,67,56.85l1.08,7.93Z"/></g></g></svg>