<svg xmlns="http://www.w3.org/2000/svg" xmlns:xlink="http://www.w3.org/1999/xlink" viewBox="0 0 100 100"><defs><style>.cls-1{fill:url(#linear-gradient);}.cls-2{fill:#231f20;}</style><linearGradient id="linear-gradient" x1="-0.6" y1="50" x2="100.6" y2="50" gradientUnits="userSpaceOnUse"><stop offset="0" stop-color="#33808d"/><stop offset="1" stop-color="#60c5ba"/></linearGradient></defs><title>Keemiaõnnetus</title><g id="Layer_2" data-name="Layer 2"><g id="Layer_1-2" data-name="Layer 1"><path class="cls-1" d="M50,0,1.79,48.21,0,50l50,50,50-50ZM7.14,50,50,7.14,92.86,50,50,92.86Z"/><path class="cls-2" d="M66.78,40.77l-7.55-7.55L50,42.44l-9.23-9.22-7.55,7.55L42.44,50l-9.22,9.23,7.55,7.55L50,57.56l9.23,9.22,7.55-7.55L57.56,50ZM63.21,59.23l-4,4L50,54l-9.23,9.22-4-4L46,50l-9.22-9.23,4-4L50,46l9.23-9.22,4,4L54,50Z"/></g></g></svg>