<svg xmlns="http://www.w3.org/2000/svg" xmlns:xlink="http://www.w3.org/1999/xlink" viewBox="0 0 100 100"><defs><style>.cls-1{fill:url(#linear-gradient);}</style><linearGradient id="linear-gradient" x1="-0.6" y1="50" x2="100.6" y2="50" gradientUnits="userSpaceOnUse"><stop offset="0" stop-color="#00a660"/><stop offset="1" stop-color="#dae244"/></linearGradient></defs><title>Kiirgusõnnetus</title><g id="Layer_2" data-name="Layer 2"><g id="Layer_1-2" data-name="Layer 1"><path class="cls-1" d="M50,0,1.79,48.21,0,50l50,50,50-50ZM7.14,50,50,7.14,92.86,50,50,92.86Z"/><path d="M52.62,52.65a5.32,5.32,0,0,1-5.24,0L46.32,52,39.41,64l1.05.61a19.06,19.06,0,0,0,19.08,0L60.59,64,53.68,52ZM42.76,63.08l4.5-7.79a7.72,7.72,0,0,0,5.48,0l4.5,7.79A16.92,16.92,0,0,1,42.76,63.08Z"/><path d="M59.54,31.58,58.48,31,51.57,43l1,.61a5.27,5.27,0,0,1,2.63,4.54v1.23H69.07V48.1A19.16,19.16,0,0,0,59.54,31.58Zm-1.95,15.3a7.76,7.76,0,0,0-2.74-4.74l4.5-7.79a16.71,16.71,0,0,1,7.24,12.53Z"/><path d="M44.75,48.1a5.27,5.27,0,0,1,2.63-4.54l1-.61L41.52,31l-1.06.61A19.16,19.16,0,0,0,30.93,48.1v1.23H44.75Zm-2.34-1.22h-9a16.71,16.71,0,0,1,7.24-12.53l4.5,7.79A7.76,7.76,0,0,0,42.41,46.88Z"/></g></g></svg>