<svg xmlns="http://www.w3.org/2000/svg" xmlns:xlink="http://www.w3.org/1999/xlink" viewBox="0 0 100 100"><defs><style>.cls-1{fill:url(#linear-gradient);}.cls-2{fill:#231f20;}</style><linearGradient id="linear-gradient" x1="-3.65" y1="50" x2="103.65" y2="50" gradientUnits="userSpaceOnUse"><stop offset="0" stop-color="#8b5d3b"/><stop offset="1" stop-color="#c49a6b"/></linearGradient></defs><title>Kodused varud ja abivahendid</title><g id="Layer_2" data-name="Layer 2"><g id="Layer_1-2" data-name="Layer 1"><path class="cls-1" d="M50,0,1.79,48.21,0,50l50,50,50-50ZM7.14,50,50,7.14,92.86,50,50,92.86Z"/><path class="cls-2" d="M50,22.56l-22.69,22h7.21V65h31V44.51h7.21ZM63,42V62.51H37V42H33.47L50,26,66.53,42Z"/><polygon class="cls-2" points="48.44 39.83 48.44 47.74 40.53 47.74 40.53 50.86 48.44 50.86 48.44 58.77 51.56 58.77 51.56 50.86 59.47 50.86 59.47 47.74 51.56 47.74 51.56 39.83 48.44 39.83"/></g></g></svg>