<svg xmlns="http://www.w3.org/2000/svg" xmlns:xlink="http://www.w3.org/1999/xlink" viewBox="0 0 100 100"><defs><style>.cls-1{fill:url(#linear-gradient);}.cls-2{fill:#231f20;}</style><linearGradient id="linear-gradient" x1="-3.65" y1="50" x2="103.65" y2="50" gradientUnits="userSpaceOnUse"><stop offset="0" stop-color="#c86b3b"/><stop offset="0.18" stop-color="#c86b3b"/><stop offset="1" stop-color="#f15a29"/></linearGradient></defs><title>Kriisiolukordadeks valmistumine koos pere ja kogukonnaga</title><g id="Layer_2" data-name="Layer 2"><g id="Layer_1-2" data-name="Layer 1"><path class="cls-1" d="M50,0,1.79,48.21,0,50l50,50,50-50ZM7.14,50,50,7.14,92.86,50,50,92.86Z"/><path class="cls-2" d="M68.94,48.68l-2.1-6.51A13.7,13.7,0,0,0,66.17,40c-.1-.25-.22-.54-.41-1.13A3.69,3.69,0,0,0,62.21,36h-.38a5.27,5.27,0,0,0,2-3.95,5.53,5.53,0,0,0-5.12-5.37,5.66,5.66,0,0,0-5.18,5.42A5.25,5.25,0,0,0,55.46,36h-.14A4.41,4.41,0,0,0,52,37.5a3.85,3.85,0,0,0-3.69-2.79h-2.8a5.42,5.42,0,0,0,2.22-4.14A5.78,5.78,0,0,0,42.26,25a5.92,5.92,0,0,0-5.48,5.6,5.36,5.36,0,0,0,2.09,4.08H37.22a4,4,0,0,0-3.16,1c-1.29,1.46-1.28,2-1.28,4.78v7.86c0,.21,0,.44,0,.67,0,1.54-.07,3.27.88,4.24a2.72,2.72,0,0,0,2.87.36V70.94a3.12,3.12,0,0,0,3.27,3.31,3.31,3.31,0,0,0,2.75-1.2,3.34,3.34,0,0,0,2.69,1.3,3,3,0,0,0,2.05-1,2.48,2.48,0,0,0,2,.86,2.9,2.9,0,0,0,1.61-.46,2.52,2.52,0,0,0,1.58.52,2.47,2.47,0,0,0,1.82-.91,2.63,2.63,0,0,0,1.81.65,2.69,2.69,0,0,0,2.2-1,2.65,2.65,0,0,0,2.13,1,2.91,2.91,0,0,0,2.77-3.12V58.68h4.53l-.33-1.2s-.39-1.43-.9-3.27a1.46,1.46,0,0,0,.52.09,2.4,2.4,0,0,0,2.08-.92C69.73,52.46,69.69,51,68.94,48.68ZM55.45,32.07a3.81,3.81,0,0,1,3.28-3.53A3.7,3.7,0,0,1,62,32a3.59,3.59,0,0,1-3.33,3.31A3.43,3.43,0,0,1,55.45,32.07ZM53.56,45.26a3.13,3.13,0,0,1-3,2.84,3,3,0,0,1-2.83-2.8,3.25,3.25,0,0,1,2.91-3A3.15,3.15,0,0,1,53.56,45.26ZM38.68,30.63a4.06,4.06,0,0,1,3.58-3.71,4,4,0,0,1,3.53,3.65,3.85,3.85,0,0,1-3.64,3.48A3.68,3.68,0,0,1,38.68,30.63Zm7.78,40.55c0,.36-.7,1.28-1.23,1.28a1.54,1.54,0,0,1-1.51-1.3V58.87c0-1,0-1.55-.41-2a1.1,1.1,0,0,0-.79-.32c-1.26,0-1.26,1.4-1.26,2.63V71.16c0,.79-.5,1.19-1.47,1.19a1.23,1.23,0,0,1-1.37-1.41V45a10.33,10.33,0,0,0-.06-1.68,1.23,1.23,0,0,0-2.06-.66c-.37.38-.37.81-.35,1.68V50a6.35,6.35,0,0,1-.14,1.81c0,.1-.09.22-.6.22a.31.31,0,0,1-.22-.06c-.39-.4-.36-1.95-.34-2.87,0-.25,0-.49,0-.71V40.49c0-2.6,0-2.6.72-3.44.48-.44.81-.45,1.8-.45H48.27a2,2,0,0,1,1.91,1.53,7.93,7.93,0,0,1,0,1.35c0,.3,0,.69-.05,1.31a4.87,4.87,0,0,0-3.95,4.5,4.54,4.54,0,0,0,2.59,3.92v.47l-.44,0h-.78a3.19,3.19,0,0,0-1.56.33,1.64,1.64,0,0,0-.61.32l-.1.11c-.94,1.07-.94,1.63-.93,3.31v5a4.08,4.08,0,0,0,.74,3,2,2,0,0,0,1.36.59C46.47,66.24,46.46,69.63,46.46,71.18ZM55,60.6c-.25,0-.58,0-.58-1.86v-2.6a5.88,5.88,0,0,0,0-.69.49.49,0,0,0-.5-.45.4.4,0,0,0-.31.13c-.19.18-.19.5-.19,1a1.7,1.7,0,0,1,0,.22c0,.3,0,2,0,4.24,0,4,0,9.44,0,11.16,0,.28-.48.94-.92.94a1.09,1.09,0,0,1-1.08-1V64.55c0-.55,0-.82-.18-1a.49.49,0,0,0-.33-.13c-.12,0-.43.05-.51.55a5.81,5.81,0,0,0,0,.8v7c0,.58-.38.9-1.06.9a.92.92,0,0,1-1-1V56.4a6.54,6.54,0,0,0,0-.95.52.52,0,0,0-.87-.29c-.16.17-.16.37-.15.85v3.32a3.94,3.94,0,0,1-.09,1.14c-.05.1-.11.26-.54.26a.38.38,0,0,1-.27-.1C46,60.34,46,59.45,46,58.8v-5c0-1.59,0-1.6.51-2.18a1.3,1.3,0,0,1,1-.3h6.63a1.36,1.36,0,0,1,1.32,1.05,5.08,5.08,0,0,1,0,.85c0,.22,0,.52,0,1.08V58.5c0,.63,0,1.67-.32,2A.32.32,0,0,1,55,60.6ZM57,70.88c0,1.26-.72,1.26-1,1.26s-.85,0-.85-1.26V62.25a1.94,1.94,0,0,0,1.17-.57,2.51,2.51,0,0,0,.64-1.2ZM67.53,52.27c-.07.1-.31.13-.47.13a9.19,9.19,0,0,1-1.16-2.72l-1.2-3.74c-.2-.61-.3-1-.36-1.28a1.46,1.46,0,0,0-.62-1.06,1.14,1.14,0,0,0-.92-.08l-.25.11a1.4,1.4,0,0,0-.44,1.71c0,.14.08.3.13.54.33,1.35,2.19,8.11,3,10.91H61.26V70.88s0,1.23-.87,1.23-.94-1-.94-1.23V59.05c0-1,0-1.52-.4-1.92l-.39-.33h-.39a1,1,0,0,0-1.08.81V54.28c0-.51,0-.79,0-1a5.83,5.83,0,0,0,0-1.15l-.06-.25a3,3,0,0,0-2.91-2.23H52.55v-.49l.17-.07a4.59,4.59,0,0,0,2.42-3.81,4.78,4.78,0,0,0-2.67-4.08L53,39.4a2.38,2.38,0,0,1,2.28-1.54h6.89c.84,0,1.42.51,1.75,1.54a13,13,0,0,0,.46,1.27,12.2,12.2,0,0,1,.6,2l2.12,6.57h0C67.89,51.6,67.6,52.18,67.53,52.27Z"/></g></g></svg>