<svg xmlns="http://www.w3.org/2000/svg" xmlns:xlink="http://www.w3.org/1999/xlink" viewBox="0 0 100 100"><defs><style>.cls-1{fill:url(#linear-gradient);}.cls-2{fill:#0d0d0d;}</style><linearGradient id="linear-gradient" x1="-0.6" y1="50" x2="100.6" y2="50" gradientUnits="userSpaceOnUse"><stop offset="0" stop-color="#292f75"/><stop offset="1" stop-color="#0093d7"/></linearGradient></defs><title>Üleujutus</title><g id="Layer_2" data-name="Layer 2"><g id="Layer_1-2" data-name="Layer 1"><path class="cls-1" d="M50,0,1.79,48.21,0,50l50,50,50-50ZM7.14,50,50,7.14,92.86,50,50,92.86Z"/><polygon class="cls-2" points="53.47 56.32 49.38 59.09 45.3 56.32 41.21 59.09 37.12 56.32 37.12 58.81 41.21 61.58 45.3 58.81 49.38 61.58 53.47 58.81 57.55 61.58 61.64 58.81 61.64 56.32 57.55 59.09 53.47 56.32"/><path class="cls-2" d="M65.73,53.49l-4.09-2.78-4.08,2.78-4.09-2.78-3.88,2.64V44.19H41.15v9.26l-4-2.74L33,53.49,29,50.71V53.2L33,56l4.09-2.78L41.21,56l2.06-1.4,2-1.38,2,1.38L49.38,56l4.09-2.78L57.56,56l4.08-2.78L65.73,56l4.09-2.78V50.71ZM45.3,50.71l-2.09,1.42V46.25h4.32v6Z"/><path class="cls-2" d="M59.63,50.13V44.19H53.69v5.94Zm-3.88-3.88h1.82v1.82H55.75Z"/><polygon class="cls-2" points="35.17 44.91 39.85 41.72 39.85 41.68 39.85 39.22 39.85 36.77 40.36 36.77 40.36 38.88 40.35 38.88 40.35 41.38 49.41 35.2 63.6 44 63.6 49.64 65.66 51.03 65.66 42.85 49.35 32.74 42.42 37.47 42.42 34.7 37.79 34.7 37.79 40.63 33.1 43.82 33.1 50.98 35.17 49.58 35.17 44.91"/></g></g></svg>