<svg xmlns="http://www.w3.org/2000/svg" xmlns:xlink="http://www.w3.org/1999/xlink" viewBox="0 0 100 100"><defs><style>.cls-1{fill:url(#linear-gradient);}</style><linearGradient id="linear-gradient" x1="-0.6" y1="50" x2="100.6" y2="50" gradientUnits="userSpaceOnUse"><stop offset="0" stop-color="#f15a29"/><stop offset="0.86" stop-color="#fbb040"/><stop offset="1" stop-color="#fbb040"/></linearGradient></defs><title>Maagaasiga varustamise katkemine</title><g id="Layer_2" data-name="Layer 2"><g id="Layer_1-2" data-name="Layer 1"><path d="M64.63,33.54A22.29,22.29,0,1,0,71.16,49.3,22.26,22.26,0,0,0,64.63,33.54ZM29.06,49.3A19.79,19.79,0,0,1,62,34.47l-5.21,5.22a5.31,5.31,0,0,0-3.09-1.54V36.21a1.16,1.16,0,0,0,.85-1.13V35a1.17,1.17,0,0,0-1.15-1.19h-9A1.19,1.19,0,0,0,43.21,35v.12a1.16,1.16,0,0,0,1,1.16v1.89a5.27,5.27,0,0,0-4.8,5.25V56.6c0,.12,0,.25,0,.37L34,62.41A19.66,19.66,0,0,1,29.06,49.3Zm28-5.92V56.6a4.08,4.08,0,0,1-4.06,4H44.75a4.1,4.1,0,0,1-3.47-2,4.19,4.19,0,0,1-.58-2.08V43.38a4,4,0,0,1,3.55-4,2.81,2.81,0,0,1,.5,0H53a3.93,3.93,0,0,1,.69.06,4.1,4.1,0,0,1,2.21,1.16A4,4,0,0,1,57,43C57,43.1,57,43.24,57,43.38Zm-11.19-8V38.1h-.66V35.35h-.81a.24.24,0,0,1-.23-.27V35a.24.24,0,0,1,.23-.25h9a.24.24,0,0,1,.22.25v.12a.24.24,0,0,1-.22.27h-.63V38.1h-.67V35.35Zm5.3.92V38.1H46.76V36.27Zm11.72,27a19.78,19.78,0,0,1-27.06.87l4.57-4.58a5.31,5.31,0,0,0,4.38,2.3H53a5.29,5.29,0,0,0,5.3-5.29V43.38a5.12,5.12,0,0,0-.21-1.47l5.68-5.68a19.81,19.81,0,0,1-.88,27.07Z"/><path d="M52.21,45.66c-1.5-2.28-3-4.15-3-4.15l-.37-.46-.37.46a49.72,49.72,0,0,0-5,7.72,8.25,8.25,0,0,0-1,3.25,6.38,6.38,0,1,0,12.76,0,8.39,8.39,0,0,0-1-3.25A38.14,38.14,0,0,0,52.21,45.66ZM48.87,57.78a3.61,3.61,0,0,1-3.45-3.47,2.55,2.55,0,0,1,0-.39c0-1.85,1.43-4.05,2.16-5l.16-.2a10.37,10.37,0,0,1,1.09,3c0,.22,0,.34,0,.34l.12.88.41-.79a5,5,0,0,0,.51-2.34,9,9,0,0,0-.22-1.9,8.1,8.1,0,0,1,2.65,6c0,.15,0,.3,0,.44A3.53,3.53,0,0,1,48.87,57.78Zm3.84-1.46a5,5,0,0,1-1,.78h0a4.34,4.34,0,0,0,1.17-2.75c0-.15,0-.31,0-.47a8.59,8.59,0,0,0-3.54-7l-.45-.32v.61h0l0,0,0,.15c0,.13.1.33.15.56a9,9,0,0,1,.21,1.81A5.12,5.12,0,0,1,49.21,51,9.81,9.81,0,0,0,48,48.06l-.21-.31-.24.28a16.53,16.53,0,0,0-1.35,1.9,8.26,8.26,0,0,0-1.35,4,3.39,3.39,0,0,0,0,.45,4.81,4.81,0,0,0,1.27,2.8h0a4.94,4.94,0,0,1-1.1-.84,5.42,5.42,0,0,1-1.59-3.84,5.76,5.76,0,0,1,.51-2,18.65,18.65,0,0,1,1.3-2.55,50.41,50.41,0,0,1,3.08-4.62l.55-.74a2.29,2.29,0,0,1,.17.23c.34.45.8,1.07,1.32,1.81a37.34,37.34,0,0,1,3.08,5,7.55,7.55,0,0,1,.88,2.84A5.43,5.43,0,0,1,52.71,56.32Z"/><path class="cls-1" d="M50,0,1.79,48.21,0,50l50,50,50-50ZM7.14,50,50,7.14,92.86,50,50,92.86Z"/></g></g></svg>