<svg xmlns="http://www.w3.org/2000/svg" viewBox="0 0 100 100"><defs><style>.cls-1{fill:#231f20;}.cls-2{fill:#d2232a;}</style></defs><title>Minu meelespea evakuatsiooniks</title><g id="Layer_2" data-name="Layer 2"><g id="Layer_1-2" data-name="Layer 1"><polygon class="cls-1" points="46.96 54.79 42.5 50.35 40.43 52.4 46.96 58.93 59.12 46.77 57.05 44.7 46.96 54.79"/><path class="cls-1" d="M60.63,31.4V29.23H55.19a5.25,5.25,0,0,0-10.38,0H39.37V31.4H32.73V69.32H67.27V31.4ZM47.27,30.2a1.13,1.13,0,0,1,0-.18,2.76,2.76,0,1,1,5.52,0,1.1,1.1,0,0,1,0,.16l-.14,1.22,0,.32h5.57v4.72H41.87V31.72h4.18l1.42-.1,0-.22ZM64.78,66.82H35.22V33.89h4.15v5H60.63v-5h4.15Z"/><path class="cls-2" d="M50,0,1.79,48.21,0,50l50,50,50-50ZM7.14,50,50,7.14,92.86,50,50,92.86Z"/></g></g></svg>