<svg xmlns="http://www.w3.org/2000/svg" xmlns:xlink="http://www.w3.org/1999/xlink" viewBox="0 0 100 100"><defs><style>.cls-1{fill:url(#linear-gradient);}.cls-2{fill:#231f20;}</style><linearGradient id="linear-gradient" x1="-0.6" y1="50" x2="100.6" y2="50" gradientUnits="userSpaceOnUse"><stop offset="0" stop-color="#b2284b"/><stop offset="1" stop-color="#f78e1e"/></linearGradient></defs><title>Ohuteavitus</title><g id="Layer_2" data-name="Layer 2"><g id="Layer_1-2" data-name="Layer 1"><path class="cls-1" d="M50,0,1.79,48.21,0,50l50,50,50-50ZM7.14,50,50,7.14,92.86,50,50,92.86Z"/><path class="cls-2" d="M49.71,28A18.52,18.52,0,0,0,33.15,54.87L30.67,65.45l9.24-3.15A18.53,18.53,0,1,0,49.71,28Zm0,34.39a15.82,15.82,0,0,1-8.87-2.71l-.55-.37-5.93,2L36,54.51l-.24-.45a15.86,15.86,0,1,1,14,8.37Z"/><polygon class="cls-2" points="47.5 37.78 48.71 49.09 50.86 49.09 52.06 37.78 52.06 37.27 47.5 37.27 47.5 37.78"/><rect class="cls-2" x="47.71" y="51.09" width="4.15" height="4.09"/></g></g></svg>