<svg xmlns="http://www.w3.org/2000/svg" xmlns:xlink="http://www.w3.org/1999/xlink" viewBox="0 0 100 100"><defs><style>.cls-1{fill:url(#linear-gradient);}</style><linearGradient id="linear-gradient" x1="-0.6" y1="50" x2="100.6" y2="50" gradientUnits="userSpaceOnUse"><stop offset="0" stop-color="#ed1c24"/><stop offset="1" stop-color="#ee2a7b"/></linearGradient></defs><title>Ootamatu rünnak avalikus kohas</title><g id="Layer_2" data-name="Layer 2"><g id="Layer_1-2" data-name="Layer 1"><path class="cls-1" d="M50,0,1.79,48.21,0,50l50,50,50-50ZM7.14,50,50,7.14,92.86,50,50,92.86Z"/><path d="M73.73,35.89h0l-.62,0v-.08a1.55,1.55,0,0,0-1.61-1.44h0A1.52,1.52,0,0,0,70,36v.09l-5.9.34-1.53-2.71A1.61,1.61,0,0,0,61.19,33l-7,.22A1.59,1.59,0,0,0,52.7,34.4l-.69,3,3.1-.15L49.6,39.77l-.49-.27c-.74-.42-1.81-1-2.82-1.59a4.94,4.94,0,0,0,1,.11A5.19,5.19,0,0,0,48,27.69a5.16,5.16,0,0,0-5.69,6.79h-.75a4,4,0,0,0-3,1.21,4.21,4.21,0,0,0-1.22,3c0,5.4,0,9.81,0,11.67a6.77,6.77,0,0,0,.31,2.06c.33,1.1,1,3.29,1.7,6.29H32.07a3.23,3.23,0,0,0,0,6.46H43.52a3.19,3.19,0,0,0,2.53-1.22,3.24,3.24,0,0,0,.62-2.75l-1.74-7.39,4.28-.43-1.28,8a3.23,3.23,0,0,0,6.38,1l1.94-12.19a3.24,3.24,0,0,0-.84-2.72,3.19,3.19,0,0,0-2.67-1l-4.09.4v-.66L48.32,46a8.89,8.89,0,0,1-.82-.79L47.33,45l.74.41a2.87,2.87,0,0,0,2.57.11l6.83-3.12,1.22,3.23a2.62,2.62,0,0,0,2.48,1.78,2.74,2.74,0,0,0,.84-.14A2.63,2.63,0,0,0,63.64,44l-.91-2.69,2.4-.14a1.47,1.47,0,0,0,1.05-.51,1.5,1.5,0,0,0,.39-1.1.59.59,0,0,0,0-.14L73.9,39a1.53,1.53,0,0,0-.17-3.06ZM43.86,32.31a3.4,3.4,0,0,1,3.36-2.9,3.15,3.15,0,0,1,.53,0,3.42,3.42,0,1,1-3.89,2.86Zm14.06,8-8,3.65a1.08,1.08,0,0,1-1,0L43.3,40.72l-2.44-1.36-.19,1.27a8,8,0,0,0,0,1.88l.08,1.37A3.21,3.21,0,0,0,45,46.75l1.15-.38.08.07.62.62,0,1.81,6.08-.6a1.41,1.41,0,0,1,1.19.45,1.44,1.44,0,0,1,.38,1.22L52.55,62.13a1.45,1.45,0,0,1-2.86-.46l1.64-10.33-8.6.85,2.2,9.38a1.47,1.47,0,0,1-.27,1.23,1.45,1.45,0,0,1-1.14.55H32.07a1.45,1.45,0,1,1,0-2.9h9.62l-.25-1.09c-.84-3.62-1.62-6.26-2-7.5a5.32,5.32,0,0,1-.23-1.54c0-1.86,0-6.27,0-11.68a2.39,2.39,0,0,1,.7-1.69A2.33,2.33,0,0,1,41,36.32a4.24,4.24,0,0,0,1.53,1.56c.61.33,4,2.23,5.67,3.17l1.27.72L57,38.34a1,1,0,0,1,1.4.52A1.07,1.07,0,0,1,57.92,40.27ZM46.31,44.44l-1.86.62a1.43,1.43,0,0,1-1.88-1.28l-.08-1.38a.34.34,0,0,1,0-.1Zm12.37-7.7a2.83,2.83,0,0,0-2.38,0l-.95.43.18-.86,4.8-.15.29.51Zm15.14.87-12.33.72,3.61,1.09a.19.19,0,0,1,.13.17.17.17,0,0,1,0,.14.23.23,0,0,1-.14.07L60.9,40l1.48,4.36a1.22,1.22,0,0,1-.07,1,1.26,1.26,0,0,1-.73.65,1.29,1.29,0,0,1-1.64-.82l-1.25-3.33a2.86,2.86,0,0,0,1.37-3.75L60,38l2.84-.14-1.74-3.1L54.43,35l-.2,1-.52,0L54,34.7a.27.27,0,0,1,.24-.2l7-.22a.28.28,0,0,1,.22.12l1.94,3.44,8.07-.47-.09-1.43a.2.2,0,0,1,0-.13.21.21,0,0,1,.15-.07.19.19,0,0,1,.19.18l.08,1.42,2-.11a.19.19,0,0,1,.19.18A.18.18,0,0,1,73.82,37.61Z"/></g></g></svg>