<svg xmlns="http://www.w3.org/2000/svg" xmlns:xlink="http://www.w3.org/1999/xlink" viewBox="0 0 100 100"><defs><style>.cls-1{fill:url(#linear-gradient);}</style><linearGradient id="linear-gradient" x1="-0.6" y1="50" x2="100.6" y2="50" gradientUnits="userSpaceOnUse"><stop offset="0" stop-color="#ed1c24"/><stop offset="1" stop-color="#faa21b"/></linearGradient></defs><title>Plahvatus</title><g id="Layer_2" data-name="Layer 2"><g id="Layer_1-2" data-name="Layer 1"><path class="cls-1" d="M50,0,1.79,48.21,0,50l50,50,50-50Zm0,92.86L7.14,50,50,7.14,92.86,50Z"/><rect x="43.46" y="48.25" width="9.98" height="1.89" transform="translate(-20.6 49.22) rotate(-45.46)"/><rect x="40.71" y="30.91" width="10.7" height="1.89" transform="translate(-0.38 63.16) rotate(-68.66)"/><rect x="52.59" y="26.35" width="9.05" height="1.89" transform="translate(3.08 60.27) rotate(-56.94)"/><rect x="61.55" y="41.83" width="12.51" height="1.89" transform="matrix(0.84, -0.54, 0.54, 0.84, -12.37, 43.22)"/><rect x="36.84" y="43.19" width="8.83" height="1.89" transform="translate(-14.89 66.47) rotate(-68.62)"/><rect x="37.82" y="41.13" width="19.35" height="1.89" transform="translate(-13.67 58.94) rotate(-56.95)"/><rect x="52.22" y="36.17" width="16.26" height="1.89" transform="translate(-8.43 54.09) rotate(-45.46)"/><rect x="48.64" y="57.41" width="4.64" height="1.89" transform="translate(-18.13 23.3) rotate(-21.97)"/><rect x="52.49" y="58.53" width="1.89" height="8.83" transform="translate(-16.63 106.63) rotate(-81.61)"/><rect x="55.16" y="52.74" width="14.77" height="1.89" transform="translate(-15.55 27.31) rotate(-21.98)"/><rect x="46.27" y="50.77" width="15.64" height="1.89" transform="matrix(0.84, -0.54, 0.54, 0.84, -19.33, 37.23)"/><rect x="35.88" y="38.99" width="1.89" height="8.83" transform="translate(-0.15 0.13) rotate(-0.2)"/><path d="M42.87,55.09l-5.13-.71.12-4.65-1.09.14a8.64,8.64,0,0,0-1.47.28,9.41,9.41,0,0,0,2.64,18.44,9.39,9.39,0,0,0,9-6.82l.31-1.08-4.39-.49ZM40.05,66.4A7.52,7.52,0,0,1,35.83,52l.08,0L35.81,56l5.17.72,0,5.16,3.75.41A7.49,7.49,0,0,1,40.05,66.4Z"/></g></g></svg>