<svg xmlns="http://www.w3.org/2000/svg" xmlns:xlink="http://www.w3.org/1999/xlink" viewBox="0 0 100 100"><defs><style>.cls-1{fill:url(#linear-gradient);}</style><linearGradient id="linear-gradient" x1="-3.65" y1="50" x2="103.65" y2="50" gradientUnits="userSpaceOnUse"><stop offset="0" stop-color="#231f20"/><stop offset="1" stop-color="#726658"/></linearGradient></defs><title>Sideteenuste katkemine</title><g id="Layer_2" data-name="Layer 2"><g id="Layer_1-2" data-name="Layer 1"><path class="cls-1" d="M50,0,1.79,48.21,0,50l50,50,50-50ZM7.14,50,50,7.14,92.86,50,50,92.86Z"/><path d="M50,28A22,22,0,1,0,72,50,22,22,0,0,0,50,28ZM30.49,50A19.5,19.5,0,0,1,62.9,35.37l-5.07,5.07L50,32.86,33.64,48.7h5.48V59.16L35.37,62.9A19.4,19.4,0,0,1,30.49,50Zm9.87-3.8H39.8L50,36.34,60.2,46.2H58.39V60.08H41.61V46.2ZM63.79,63.79a19.48,19.48,0,0,1-26.65.87l2.09-2.09H60.88V48.7h5.48l-6.74-6.52,5-5a19.49,19.49,0,0,1-.87,26.66Z"/><path d="M50,52.44a1.45,1.45,0,1,0,1.44,1.44A1.44,1.44,0,0,0,50,52.44Z"/><polygon points="45.81 50.91 45.81 50.91 45.81 50.91 45.81 50.91"/><path d="M50,47.22a6.67,6.67,0,0,1,5.16,2.46l1.18-1a8.18,8.18,0,0,0-12.68,0l1.18,1A6.67,6.67,0,0,1,50,47.22Z"/><path d="M50,48.73a4.57,4.57,0,0,0-2.38.67,9,9,0,0,0-1.81,1.51L46.9,52a7.77,7.77,0,0,1,1.5-1.26,3.07,3.07,0,0,1,3.15,0,7.79,7.79,0,0,1,1.51,1.24l1.08-1.09a9.32,9.32,0,0,0-1.82-1.47A4.54,4.54,0,0,0,50,48.73Z"/></g></g></svg>