<svg xmlns="http://www.w3.org/2000/svg" xmlns:xlink="http://www.w3.org/1999/xlink" viewBox="0 0 100 100"><defs><style>.cls-1{fill:#231f20;}.cls-2{fill:url(#linear-gradient);}</style><linearGradient id="linear-gradient" x1="-3.65" y1="50" x2="103.65" y2="50" gradientUnits="userSpaceOnUse"><stop offset="0" stop-color="#ed1c24"/><stop offset="1" stop-color="#f15a29"/></linearGradient></defs><title>Soojusvarustuse katkemine</title><g id="Layer_2" data-name="Layer 2"><g id="Layer_1-2" data-name="Layer 1"><path class="cls-1" d="M50,28.08A21.92,21.92,0,1,0,71.92,50,21.91,21.91,0,0,0,50,28.08ZM30.57,50A19.43,19.43,0,0,1,62.85,35.42l-7.64,7.64a2.22,2.22,0,0,0-2.63.53,2.2,2.2,0,0,0-3.29,0,2.21,2.21,0,0,0-3.3,0,2.19,2.19,0,0,0-1.64-.73,2.22,2.22,0,0,0-1.66.75,2.2,2.2,0,0,0-3.84,1.48V59.42l-3.42,3.43A19.32,19.32,0,0,1,30.57,50ZM59,46.79h.23l0,0,.15.17a1.67,1.67,0,0,1,.23.9,1.94,1.94,0,0,1-.14.73.75.75,0,0,1-.24.33l0,0h-1V59.12a.69.69,0,0,1-1.37,0V45a.69.69,0,0,1,.69-.68.67.67,0,0,1,.68.68v1.77ZM53.56,59.14V45a.68.68,0,0,1,.68-.68.69.69,0,0,1,.69.68v14.1a.68.68,0,0,1-.69.68A.67.67,0,0,1,53.56,59.14ZM51.63,45.07V59.16a.69.69,0,0,1-1.37,0V45.07a.69.69,0,1,1,1.37,0ZM47,59.18V45.09a.69.69,0,0,1,.69-.69.68.68,0,0,1,.68.69V59.18a.69.69,0,0,1-.68.69A.7.7,0,0,1,47,59.18ZM45,45.11V59.2a.69.69,0,0,1-1.38,0V45.11a.69.69,0,0,1,1.38,0ZM40.37,59.22V45.13a.69.69,0,1,1,1.37,0V59.22a.69.69,0,1,1-1.37,0Zm23.37,4.52a19.43,19.43,0,0,1-26.55.87l3.26-3.26a2.35,2.35,0,0,0,.6.08,2.18,2.18,0,0,0,1.66-.75,2.21,2.21,0,0,0,3.3,0,2.19,2.19,0,0,0,1.64.73,2.22,2.22,0,0,0,1.66-.75,2.2,2.2,0,0,0,3.29,0,2.28,2.28,0,0,0,1.64.73,2.22,2.22,0,0,0,1.66-.75,2.21,2.21,0,0,0,3.85-1.48V50.39a2.21,2.21,0,0,0,.34-.18,2.09,2.09,0,0,0,.6-.62,3.21,3.21,0,0,0,.46-1.71,3.41,3.41,0,0,0-.26-1.34,2.25,2.25,0,0,0-.8-1,2.21,2.21,0,0,0-.34-.18V45a2.23,2.23,0,0,0-1.08-1.89l5.94-5.94a19.43,19.43,0,0,1-.87,26.55Z"/><path class="cls-1" d="M46.56,38.72a1.55,1.55,0,0,1,.33,1,2.92,2.92,0,0,1-.22.83,5.1,5.1,0,0,1-.32.7l0,0,1.34.73a7.55,7.55,0,0,0,.36-.76,4.41,4.41,0,0,0,.38-1.54A3.08,3.08,0,0,0,48,38.18c-.21-.37-.41-.59-.47-.72l-.06-.24a.84.84,0,0,1,.14-.49l.14-.15-.18-.28.16.29-.37-.66h0L47,35.26a2.16,2.16,0,0,0-.55.49A2.36,2.36,0,0,0,46,37.22a2.06,2.06,0,0,0,.23.93A5.34,5.34,0,0,0,46.56,38.72Z"/><path class="cls-1" d="M42.49,38.72a1.55,1.55,0,0,1,.33,1,2.92,2.92,0,0,1-.22.83,5.1,5.1,0,0,1-.32.7l0,0L43.6,42a7.55,7.55,0,0,0,.36-.76,4.41,4.41,0,0,0,.38-1.54A3.08,3.08,0,0,0,44,38.18c-.21-.37-.41-.59-.47-.72l-.06-.24a.84.84,0,0,1,.14-.49l.14-.15-.18-.27-.58-1.05a2,2,0,0,0-.55.49,2.36,2.36,0,0,0-.49,1.47,2.06,2.06,0,0,0,.23.93A5.34,5.34,0,0,0,42.49,38.72Z"/><path class="cls-1" d="M50.77,38.72a1.55,1.55,0,0,1,.33,1,3.19,3.19,0,0,1-.21.83,6.23,6.23,0,0,1-.33.7l0,0,1.34.73a7.55,7.55,0,0,0,.36-.76,4.41,4.41,0,0,0,.38-1.54,2.88,2.88,0,0,0-.39-1.54c-.21-.37-.4-.59-.46-.72l-.06-.24a.78.78,0,0,1,.13-.49l.14-.15-.18-.28.16.29-.37-.66h0l-.37-.67a2.16,2.16,0,0,0-.55.49,2.36,2.36,0,0,0-.49,1.47,2.06,2.06,0,0,0,.23.93A5.34,5.34,0,0,0,50.77,38.72Z"/><path class="cls-1" d="M55,38.72a1.55,1.55,0,0,1,.33,1,3.19,3.19,0,0,1-.21.83,6.23,6.23,0,0,1-.33.7l0,0,1.34.73a7.55,7.55,0,0,0,.36-.76,4.41,4.41,0,0,0,.38-1.54,2.88,2.88,0,0,0-.39-1.54c-.21-.37-.4-.59-.46-.72l-.06-.24a.78.78,0,0,1,.13-.49l.14-.15L56,36.3l.16.29-.37-.66h0l-.37-.67a2.16,2.16,0,0,0-.55.49,2.36,2.36,0,0,0-.49,1.47,2.06,2.06,0,0,0,.23.93A5.34,5.34,0,0,0,55,38.72Z"/><path class="cls-2" d="M50,0,1.79,48.21,0,50l50,50,50-50ZM7.14,50,50,7.14,92.86,50,50,92.86Z"/></g></g></svg>