<svg xmlns="http://www.w3.org/2000/svg" xmlns:xlink="http://www.w3.org/1999/xlink" viewBox="0 0 100 100"><defs><style>.cls-1{fill:url(#linear-gradient);}.cls-2{fill:#0d0d0d;}</style><linearGradient id="linear-gradient" x1="-0.6" y1="50" x2="100.6" y2="50" gradientUnits="userSpaceOnUse"><stop offset="0" stop-color="#fdba12"/><stop offset="1" stop-color="#ffdb00"/></linearGradient></defs><title>Tulekahju hoones</title><g id="Layer_2" data-name="Layer 2"><g id="Layer_1-2" data-name="Layer 1"><path class="cls-1" d="M50,0,1.79,48.21,0,50l50,50,50-50ZM7.14,50,50,7.14,92.86,50,50,92.86Z"/><rect class="cls-2" x="40.72" y="44.33" width="2.33" height="3.08"/><rect class="cls-2" x="40.72" y="51.24" width="2.33" height="3.08"/><rect class="cls-2" x="47.16" y="51.24" width="2.33" height="3.08"/><rect class="cls-2" x="40.72" y="58.16" width="2.33" height="3.08"/><rect class="cls-2" x="47.16" y="58.16" width="2.33" height="3.08"/><rect class="cls-2" x="53.61" y="58.16" width="2.33" height="3.08"/><path class="cls-2" d="M63.74,39.88c1.34,3-.76,4.59-2.81,4.59S56.72,42.74,58.61,39c2.75-5.4,2.14-9.91-4.74-13.52,2.87,3.39.61,5.32-2.32,8.19-1.21-3-3.29-4.89-6.76-6.28,2.68,3.31-1.51,4.35-3.55,6.8a5.66,5.66,0,0,0-1.39,2.9H33.4V68.44H63.26V54.37C68.25,50.52,67,42.59,63.74,39.88Zm.1,10a5.92,5.92,0,0,1-2.91,3.26v1h0v12H35.72V39.45h8.5a16.2,16.2,0,0,1,1.41-2.33H42.26A6.76,6.76,0,0,1,44.9,34a9,9,0,0,0,2.42-2.42,5.92,5.92,0,0,1,2.27,4.21,16.72,16.72,0,0,0-3.74,6.49h2.47c1.12-3.18,3.25-5.31,5.22-7.23a15.69,15.69,0,0,0,3.4-4.16c1.49,2.14,1,4.44-.41,7.13-1.56,3.07-1,5.17-.26,6.38a5.37,5.37,0,0,0,4.66,2.45,6.08,6.08,0,0,0,3.27-.95A8.23,8.23,0,0,1,63.84,49.84Z"/></g></g></svg>