<svg xmlns="http://www.w3.org/2000/svg" xmlns:xlink="http://www.w3.org/1999/xlink" viewBox="0 0 100 100"><defs><style>.cls-1{fill:url(#linear-gradient);}.cls-2{fill:#0d0d0d;}</style><linearGradient id="linear-gradient" x1="-0.6" y1="50" x2="100.6" y2="50" gradientUnits="userSpaceOnUse"><stop offset="0" stop-color="#7c7079"/><stop offset="1" stop-color="#a0a4a8"/></linearGradient></defs><title>Välisriigis kriisiolukorda sattumine</title><g id="Layer_2" data-name="Layer 2"><g id="Layer_1-2" data-name="Layer 1"><path class="cls-1" d="M50,0,1.79,48.21,0,50l50,50,50-50ZM7.14,50,50,7.14,92.86,50,50,92.86Z"/><rect class="cls-2" x="48.92" y="48" width="2.16" height="2.16"/><path class="cls-2" d="M50,32.22A16.86,16.86,0,1,0,66.85,49.07,16.85,16.85,0,0,0,50,32.22ZM64.64,48H60a29.27,29.27,0,0,0-1.12-7.15,27.37,27.37,0,0,0,2.57-1A14.61,14.61,0,0,1,64.64,48Zm-4.79-9.8c-.55.22-1.09.45-1.67.63a24.74,24.74,0,0,0-1.25-2.71A14.74,14.74,0,0,1,59.85,38.2Zm-8.77-3.77a15.12,15.12,0,0,1,2.61.43l0,0a20.79,20.79,0,0,1,2.42,4.52,27.13,27.13,0,0,1-5,.63Zm-4.77.43a15.12,15.12,0,0,1,2.61-.43V40a27.35,27.35,0,0,1-5-.63,21.26,21.26,0,0,1,2.43-4.52Zm-3.24,1.26a24.74,24.74,0,0,0-1.25,2.71c-.58-.18-1.13-.41-1.68-.63A15.1,15.1,0,0,1,43.07,36.12Zm-4.5,3.73a27.31,27.31,0,0,0,2.57,1A29.35,29.35,0,0,0,40,48H35.36A14.55,14.55,0,0,1,38.57,39.85Zm-3.21,10.3H40a29.35,29.35,0,0,0,1.12,7.16,27.31,27.31,0,0,0-2.57,1A14.55,14.55,0,0,1,35.36,50.15ZM40.14,60c.55-.22,1.1-.44,1.68-.63A23.9,23.9,0,0,0,43.07,62,15.1,15.1,0,0,1,40.14,60Zm8.78,3.77a15.12,15.12,0,0,1-2.61-.43l0,0a20.89,20.89,0,0,1-2.43-4.53,28.25,28.25,0,0,1,5-.62Zm4.77-.43a15.12,15.12,0,0,1-2.61.43v-5.6a28.25,28.25,0,0,1,5,.62,21.33,21.33,0,0,1-2.43,4.53ZM51.08,56V54.6H48.92V56a28.87,28.87,0,0,0-5.71.73,26.37,26.37,0,0,1-1-6.55h2.29V48H42.18a26.29,26.29,0,0,1,1-6.54,29.63,29.63,0,0,0,5.71.72v1.37h2.16V42.18a29.63,29.63,0,0,0,5.71-.73,27.33,27.33,0,0,1,1,6.55h-2.3v2.15h2.3a27.33,27.33,0,0,1-1,6.55A29.63,29.63,0,0,0,51.08,56ZM56.93,62a24.58,24.58,0,0,0,1.25-2.7c.57.18,1.12.4,1.67.62A14.74,14.74,0,0,1,56.93,62Zm4.5-3.74c-.83-.36-1.69-.7-2.57-1A29.27,29.27,0,0,0,60,50.15h4.66A14.55,14.55,0,0,1,61.43,58.29Z"/></g></g></svg>