<svg xmlns="http://www.w3.org/2000/svg" xmlns:xlink="http://www.w3.org/1999/xlink" viewBox="0 0 100 100"><defs><style>.cls-1{fill:#231f20;}.cls-2{fill:url(#linear-gradient);}</style><linearGradient id="linear-gradient" x1="-0.6" y1="50" x2="100.6" y2="50" gradientUnits="userSpaceOnUse"><stop offset="0" stop-color="#437a35"/><stop offset="0.98" stop-color="#3e8270"/><stop offset="1" stop-color="#3e8270"/></linearGradient></defs><title>Varing</title><g id="Layer_2" data-name="Layer 2"><g id="Layer_1-2" data-name="Layer 1"><path class="cls-1" d="M52.78,4.74l-2.91,5.68L52,21.9l1.95,4.31-4.89,1.37,2.8,5.33,3.47-2.45-.75-2.85,1.22,2.71,2.5,2.46,1.32,4.9,3.38,4v8.8L64.83,53l1.78,12.75,9.64,5.73L96.83,50.12Zm-.4,26-1.16-2.21L53.13,28l.49,1.87ZM75.91,69l-7.47-4.44L66.72,52.27,65,49.86V41l-3.56-4.25-1.34-5-2.63-2.59-3.52-7.74-2-10.7,1.34-2.61,40.79,42Z"/><path class="cls-1" d="M52.93,39.81l.67-5.17L48.76,32.5l-3.25,2.69.88,5.43Zm-3.85-5,2.36,1L51.16,38,48,38.42,47.65,36Z"/><path class="cls-1" d="M49.81,53.06l3.25,3.57,4.61-3.49L53.3,48.4Zm5.66-.12-2.22,1.69L51.74,53l1.68-2.25Z"/><path class="cls-1" d="M57.27,44,53,40.54l-3.4,3.19L52,47.12Zm-4.17-1.5,1.58,1.3-2.24,1.32-.84-1.21Z"/><path class="cls-1" d="M45.75,53.94l2-5.74-5.25-2-4.39,3,1.65,4.77Zm-3-5.54,2.49,1-.9,2.6H41.16l-.69-2Z"/><path class="cls-1" d="M35.46,63.62,37,70.9l8.64.38,3.11-8.55-6-5.92Zm8.78,5.61L38.59,69l-1-4.67,5.06-4.75,3.72,3.68Z"/><path class="cls-2" d="M50,0,1.79,48.21,0,50l50,50,50-50ZM7.14,50,50,7.14,92.86,50,50,92.86Z"/></g></g></svg>