<svg xmlns="http://www.w3.org/2000/svg" xmlns:xlink="http://www.w3.org/1999/xlink" viewBox="0 0 100 100"><defs><style>.cls-1{fill:#231f20;}.cls-2{fill:url(#linear-gradient);}</style><linearGradient id="linear-gradient" x1="-0.6" y1="50" x2="100.6" y2="50" gradientUnits="userSpaceOnUse"><stop offset="0" stop-color="#262261"/><stop offset="1" stop-color="#91278f"/></linearGradient></defs><title>Varjumine siseruumidesse</title><g id="Layer_2" data-name="Layer 2"><g id="Layer_1-2" data-name="Layer 1"><path class="cls-1" d="M57.62,66V58.46h2.8l-.2-.75s-.26-.88-.57-2a.88.88,0,0,0,.33.06,1.52,1.52,0,0,0,1.29-.56c.41-.57.39-1.46-.08-2.92l-1.3-4a7.64,7.64,0,0,0-.42-1.38c-.06-.15-.12-.32-.25-.69A2.28,2.28,0,0,0,57,44.42H56.8A3.26,3.26,0,0,0,58.05,42a3.42,3.42,0,0,0-3.17-3.32A3.49,3.49,0,0,0,51.68,42a3.18,3.18,0,0,0,1.18,2.41h-.09a2.77,2.77,0,0,0-2.08.95,2.35,2.35,0,0,0-2.28-1.72H46.69a3.38,3.38,0,0,0,1.36-2.56,3.57,3.57,0,0,0-3.35-3.42,3.65,3.65,0,0,0-3.38,3.46,3.3,3.3,0,0,0,1.29,2.51h-1a2.5,2.5,0,0,0-2,.63c-.8.9-.8,1.21-.78,2.95V52.5a3.6,3.6,0,0,0,.54,2.61,1.66,1.66,0,0,0,1.77.23V66a2.18,2.18,0,0,0,.08.63H36.3v2.53H63.7V66.66H57.52A2.45,2.45,0,0,0,57.62,66ZM52.85,42a2.35,2.35,0,0,1,2-2.17,2.27,2.27,0,0,1,2,2.15,2.21,2.21,0,0,1-2.06,2A2.12,2.12,0,0,1,52.85,42Zm-2.93,6.33a1.79,1.79,0,0,1-.05,3.58,1.84,1.84,0,0,1-1.76-1.73A2,2,0,0,1,49.92,48.34ZM53.82,66a.77.77,0,0,1-.23.66.52.52,0,0,1-.37.12.43.43,0,0,1-.35-.12.91.91,0,0,1-.18-.66V60.67a1.33,1.33,0,0,0,.74-.36,1.56,1.56,0,0,0,.39-.74Zm-.91-10.94c0,.14,0,.33,0,.67v2.62c0,.39,0,1-.21,1.23a.16.16,0,0,1-.13.07c-.17,0-.37,0-.37-1.15V56.88c0-.2,0-.33,0-.42a.33.33,0,0,0-.31-.29.31.31,0,0,0-.2.09c-.11.12-.11.32-.11.65v9.64a.23.23,0,0,1,0,.11c-.07.21-.33.48-.54.48a.66.66,0,0,1-.64-.48.3.3,0,0,1,0-.11V62.08c0-.34,0-.5-.11-.62a.31.31,0,0,0-.2-.09c-.08,0-.27,0-.32.35a2.19,2.19,0,0,0,0,.5v4.33a.37.37,0,0,1,0,.11c0,.29-.26.45-.64.45a.55.55,0,0,1-.6-.45.68.68,0,0,1,0-.2V62.14c0-2.32,0-4.77,0-5.07v0a3.91,3.91,0,0,0,0-.59.33.33,0,0,0-.55-.17c-.1.1-.08.21-.08.52v2a2.66,2.66,0,0,1,0,.7c0,.06-.08.16-.35.16a.27.27,0,0,1-.16-.06c-.18-.18-.16-.72-.15-1.13v-3.1c0-1,0-1,.31-1.35a.81.81,0,0,1,.64-.19h4.1a.84.84,0,0,1,.81.65A3,3,0,0,1,52.91,55.06ZM42.48,41.13a2.52,2.52,0,0,1,2.22-2.3,2.45,2.45,0,0,1,2.19,2.26,2.39,2.39,0,0,1-2.26,2.15A2.28,2.28,0,0,1,42.48,41.13ZM42.33,66V50a5.93,5.93,0,0,0,0-1,.69.69,0,0,0-.74-.62.67.67,0,0,0-.52.22c-.24.22-.23.5-.23,1,0,.14,0,.33,0,.55v3a3.72,3.72,0,0,1-.09,1.12c0,.07-.07.14-.37.14-.1,0-.13,0-.14,0C40,54,40,53.09,40,52.51c0-.15,0-.29,0-.43V47.22c0-1.61,0-1.61.44-2.13.29-.26.51-.28,1.11-.28h6.84a1.21,1.21,0,0,1,1.18,1,3.3,3.3,0,0,1,0,.82c0,.19,0,.43,0,.81a3,3,0,0,0-2.45,2.79,2.8,2.8,0,0,0,1.6,2.42v.29l-.26,0H48a1.86,1.86,0,0,0-1,.21,1,1,0,0,0-.38.19l-.07.06c-.58.67-.58,1-.58,2v3.08a2.52,2.52,0,0,0,.46,1.87,1.39,1.39,0,0,0,.84.38v5.42a1,1,0,0,1-.26.48.79.79,0,0,1-.51.31.85.85,0,0,1-.68-.31.93.93,0,0,1-.25-.49v-7.6c0-.62,0-1-.25-1.21a.69.69,0,0,0-.48-.2c-.79,0-.79.86-.79,1.63v7.38a.62.62,0,0,1-.17.49.91.91,0,0,1-.73.24.79.79,0,0,1-.66-.24A.88.88,0,0,1,42.33,66Zm13.57.72a.51.51,0,0,1-.3-.09.79.79,0,0,1-.28-.66V58.69c0-.61,0-.94-.25-1.19l-.23-.2h-.25a.65.65,0,0,0-.67.5V55.73c0-.31,0-.48,0-.62a3,3,0,0,0,0-.72l0-.15a1.86,1.86,0,0,0-1.79-1.37h-1v-.31a.28.28,0,0,0,.12-.05,2.81,2.81,0,0,0,1.49-2.34A3,3,0,0,0,51,47.64l.36-1.1a1.48,1.48,0,0,1,1.41-.94H57c.53,0,.89.3,1.09.94.13.42.21.61.28.79a7.24,7.24,0,0,1,.38,1.25l1.31,4.06a5.29,5.29,0,0,1,.31,1.49.82.82,0,0,1-.07.37c0,.06-.19.07-.29.08a5.39,5.39,0,0,1-.72-1.69l-.75-2.31c-.11-.38-.17-.63-.22-.79a.92.92,0,0,0-.38-.65.7.7,0,0,0-.57,0l-.15.07A.86.86,0,0,0,57,50.22c0,.07.05.19.08.32.2.84,1.35,5,1.83,6.75H56.44V66a.94.94,0,0,1-.27.66A.46.46,0,0,1,55.9,66.75Z"/><polygon class="cls-1" points="63.11 30.47 65.25 28.07 64.13 27.07 61.97 29.46 63.11 30.47"/><polygon class="cls-1" points="59.81 25.7 60.94 26.71 63.1 24.31 61.96 23.3 59.81 25.7"/><polygon class="cls-1" points="56.49 29.31 57.62 30.32 59.78 27.92 58.65 26.9 56.49 29.31"/><polygon class="cls-1" points="62.23 19.24 61.09 18.23 57.79 21.91 58.92 22.93 62.23 19.24"/><polygon class="cls-1" points="64.91 34.92 63.79 33.91 62.01 35.88 60.19 34.06 62.01 32.03 60.89 31.02 59.12 32.99 54.08 27.95 56.65 25.08 55.52 24.07 53.01 26.88 50.12 23.98 33.09 41.01 34.87 42.79 50.12 27.56 65.37 42.79 67.15 41.01 63.08 36.95 64.91 34.92"/><polygon class="cls-1" points="71.94 25.1 69.8 27.5 70.92 28.5 73.08 26.11 71.94 25.1"/><polygon class="cls-1" points="65.94 31.53 67.07 32.56 69.22 30.14 68.09 29.14 65.94 31.53"/><path class="cls-2" d="M50,0,1.79,48.21,0,50l50,50,50-50ZM7.14,50,50,7.14,92.86,50,50,92.86Z"/></g></g></svg>