<svg xmlns="http://www.w3.org/2000/svg" width="100" height="100" fill-rule="evenodd"><path d="M50 0L0 50l50 50 50-50L50 0zM7.14 50L50 7.14 92.86 50 50 92.86 7.14 50z" fill="#5a98ca" fill-rule="nonzero"/><path d="M39.6 61a.79.79 0 0 0 .781-.781.79.79 0 0 0-.781-.781.79.79 0 0 0-.552.229c-.145.145-.23.346-.23.552a.79.79 0 0 0 .781.781z"/><path d="M69.216 64.438h-3.86c.412-.437.754-.957.997-1.548.522-1.27.507-2.662-.044-3.92-.08-.184-.172-.36-.272-.53.214-.048.424-.12.63-.217 1.03-.5 1.672-1.504 1.672-2.646a.78.78 0 0 0-.271-.591l-5.995-5.173-2.254-6.702c-.94-2.793-3.4-4.75-6.275-5.08a4.9 4.9 0 0 0 1.375-3.405V33.6a4.91 4.91 0 0 0-1.773-3.778l.001-.676A3.15 3.15 0 0 0 50 26a3.15 3.15 0 0 0-3.145 3.145v.664a4.96 4.96 0 0 0-1.773 3.8v1.024a4.9 4.9 0 0 0 1.375 3.405 7.53 7.53 0 0 0-6.275 5.08L37.93 49.8l-5.995 5.173a.78.78 0 0 0-.271.591c0 1.142.64 2.156 1.673 2.646a2.98 2.98 0 0 0 .629.217 5.08 5.08 0 0 0-.272.531 4.98 4.98 0 0 0-.044 3.92 5.05 5.05 0 0 0 .997 1.548H30.78a.78.78 0 1 0 0 1.563h38.435a.78.78 0 1 0 0-1.562zM55.96 49.944l.313.747c.508 1.2 1.314 2.3 2.332 3.12l1.503 1.225-4.148-1.54v-3.553zM50 27.563a1.58 1.58 0 0 1 1.567 1.376A4.9 4.9 0 0 0 50 28.681c-.548 0-1.075.092-1.567.258.1-.775.765-1.376 1.567-1.376zM46.645 33.6A3.36 3.36 0 0 1 50 30.244a3.36 3.36 0 0 1 3.355 3.355v1.024A3.36 3.36 0 0 1 50 37.978a3.36 3.36 0 0 1-3.355-3.355V33.6zM33.263 55.9l5.85-5.047c.106-.092.186-.2.23-.343l2.322-6.904c.818-2.433 3.092-4.067 5.658-4.067h5.357c2.566 0 4.84 1.635 5.658 4.067L60.66 50.5c.045.133.124.25.23.343l5.85 5.047a1.3 1.3 0 0 1-.744.9 1.34 1.34 0 0 1-1.45-.175l-4.95-4.035a6.48 6.48 0 0 1-1.878-2.512l-1.754-4.185v-2.077a.78.78 0 1 0-1.562 0v9.434H45.6v-9.434a.78.78 0 1 0-1.562 0V45.9l-1.75 4.177a6.5 6.5 0 0 1-1.878 2.512l-4.952 4.035a1.34 1.34 0 0 1-1.45.175 1.34 1.34 0 0 1-.743-.9zm10.774-2.403l-4.145 1.537 1.503-1.225c1.018-.83 1.824-1.908 2.332-3.12l.3-.74v3.546zm-8.944 8.798a3.42 3.42 0 0 1 .03-2.7c.38-.867 1.077-1.524 1.963-1.853l7.875-2.92h10.077l7.875 2.92c.887.33 1.584.987 1.963 1.853s.4 1.825.03 2.7a3.44 3.44 0 0 1-3.063 2.142h-.225c-.37-.01-.745-.08-1.112-.218l-7.027-2.615h1.043a.78.78 0 0 0 .636-1.235l-.77-1.082 5.807 1.672a.81.81 0 0 0 .217.03.78.78 0 0 0 .215-1.532L51.82 56.92a5.12 5.12 0 0 0-3.667-.2L42.1 58.606a.78.78 0 0 0 .467 1.491l6.054-1.895c.862-.27 1.763-.205 2.548.14a.83.83 0 0 0 .089.04c.548.26 1.035.658 1.406 1.177l.344.482H50.86c-.093 0-.185.017-.273.05l-11.094 4.13a3.48 3.48 0 0 1-1.11.218h-.228a3.44 3.44 0 0 1-3.062-2.142zM50 61.977l6.612 2.46H43.388L50 61.977z" fill-rule="nonzero"/></svg>