<svg xmlns="http://www.w3.org/2000/svg" width="100" height="100" fill-rule="evenodd"><g fill-rule="nonzero"><path d="M50 0L0 50l50 50 50-50L50 0zM7.14 50L50 7.14 92.86 50 50 92.86 7.14 50z" fill="#5a98ca"/><path d="M55.698 52.748v-2.78l1.024 1.024 8.46-8.46-7.45-7.45H53.24V34.2l1.305-1.305v-3.45A4.46 4.46 0 0 0 50.091 25a4.46 4.46 0 0 0-4.454 4.454v3.45L46.94 34.2v.874h-4.5L35 42.533l8.46 8.46 1.024-1.024v2.78L39.865 70h3.933l1.738-1.337 4.025-15.17h1.06l4.026 15.172L56.38 70h3.936l-4.62-17.252zm0-7.988v-4.455l2.227 2.227-2.227 2.227zm3.062 2.33l-2.038 2.038-1.024-1.024v-1.48l1.298-1.298L58.76 47.1zM46.955 29.454a3.14 3.14 0 0 1 3.136-3.136 3.14 3.14 0 0 1 3.136 3.136v2.905l-1.997 1.997h-2.278l-1.997-1.997v-2.905zM43.46 49.13l-2.038-2.038 1.764-1.764 1.298 1.298v1.48L43.46 49.13zm-1.203-6.595l2.227-2.227v4.454l-2.227-2.227zm2.12 25.36l-1.027.8h-1.767l1.484-5.543h2.57l-1.262 4.754zm7.26-15.716H48.55L46 61.823h-2.57l2.382-8.9V42.5l1.306 1.306h2.03v-1.318h-1.483l-1.852-1.852V38.83l-1.205-.5-4.205 4.205 1.86 1.86-1.764 1.764-3.625-3.625 6.13-6.13h5.264v-.874l.146.146h3.37l.146-.146v.874h5.264l6.13 6.13-3.625 3.625-1.764-1.764 1.86-1.86-4.204-4.205-1.206.5v1.816l-1.852 1.852H51.04v1.318h2.03l1.306-1.306v10.413l2.382 8.898H54.2l-2.56-9.644zm5.194 16.506l-1.022-.787-1.262-4.757h2.57l1.484 5.543h-1.77z"/></g><path d="M50.75 44.55h-1.318v2.832H46.9V48.7h6.38v-1.318h-2.53zM46.9 49.8h6.38v1.3H46.9zm11.52.6l3.4 12.2-2.18.55.322 1.278 3.5-.88-3.75-13.5zm-17.928-.362l-3.75 13.5 3.5.88.323-1.28-2.18-.55 3.4-12.2zm7.134 14.882l-.264 1.292a13.61 13.61 0 0 0 2.73.277 13.63 13.63 0 0 0 2.729-.277l-.263-1.292c-1.636.334-3.295.334-4.93 0z"/><path d="M52.67 39.517a2.58 2.58 0 0 0-2.578-2.578 2.58 2.58 0 0 0-2.578 2.578 2.58 2.58 0 0 0 2.578 2.578 2.58 2.58 0 0 0 2.578-2.578zm-3.838 0a1.26 1.26 0 0 1 2.52 0 1.26 1.26 0 0 1-2.52 0z" fill-rule="nonzero"/><path d="M51.126 33.217l-.932-.932.836-.836v-1.995a.94.94 0 0 0-.938-.938v-1.318a2.26 2.26 0 0 1 2.257 2.257v2.54l-1.222 1.222z"/><path d="M59.27 61.67l-1.326-4.775 1.27-.353 1.326 4.775-1.27.353zm-1.57-5.62l-.353-1.27 1.27-.353.353 1.27-1.27.353zm-.588-2.117l-.353-1.27 1.27-.353.353 1.27-1.27.353zm4.202-10.766l-1.825-1.825.932-.932 1.825 1.825-.932.932zm-2.447-2.447l-.932-.932.932-.932.932.932-.932.932zm-1.554-1.554l-.932-.932.932-.932.932.932-.932.932z" fill-rule="nonzero"/></svg>