<svg xmlns="http://www.w3.org/2000/svg" width="100" height="100" fill-rule="evenodd"><path d="M50 0L0 50l50 50 50-50L50 0zM7.14 50L50 7.14 92.86 50 50 92.86 7.14 50z" fill="#5a98ca" fill-rule="nonzero"/><path d="M40.968 44.42c0 .356-.3.645-.645.645a.66.66 0 0 1-.645-.645.66.66 0 0 1 .645-.645.66.66 0 0 1 .645.645zm6.452 0c0 .356-.3.645-.645.645a.66.66 0 0 1-.645-.645.66.66 0 0 1 .645-.645.66.66 0 0 1 .645.645zm-1.3 4.515h-1.3a1.29 1.29 0 1 1-2.581 0h-1.3c0 1.423 1.157 2.58 2.58 2.58s2.58-1.157 2.58-2.58z"/><path d="M68.7 50.226V39.903h-5.16v-5.16h-1.3v-5.16h-1.3V27h-9.032v2.58h-1.3v4.55a8.83 8.83 0 0 0-6.276-2.615 8.8 8.8 0 0 0-6.263 2.594l-.688.688a4.67 4.67 0 0 0-3.547 4.523v7.033c0 1.65 1.248 2.997 2.846 3.187a7.12 7.12 0 0 0 2.96 4.043v1.337l-6.6 2.198A4.51 4.51 0 0 0 30 61.403V67h27.097v-5.597a4.51 4.51 0 0 0-3.088-4.284l-6.6-2.197v-.825h21.3a1.29 1.29 0 0 0 1.29-1.29v-1.3a1.29 1.29 0 0 0-1.29-1.29zm-5.16 0v-6.452h3.87v6.452h-3.87zm-5.16 0H55.8v-5.16h2.58v5.16zm-3.87-6.452v6.452h-4.364a7.12 7.12 0 0 0 .228-.684c1.598-.2 2.846-1.54 2.846-3.187v-3.87h7.742v-5.16h-8.295a8.8 8.8 0 0 0-.592-1.29h10.177V50.23h-2.58v-6.452h-5.16zm-3.87.764c.75.267 1.3.977 1.3 1.817a1.93 1.93 0 0 1-1.317 1.825l.027-.535v-3.107zm9.032-5.925v2.58h-2.58v-2.58h2.58zm-3.87 2.58h-2.58v-.82c0-.603-.06-1.2-.177-1.76h2.757v2.58zm2.58-6.452h-1.3v-1.3h1.3v1.3zm-2.58 0h-1.3v-1.3h1.3v1.3zm11.613 6.452v1.3h-3.87v-1.3h3.87zM53.226 28.3h6.452v1.3h-6.452v-1.3zm7.742 2.58v3.87h-1.3v-2.58h-6.452v2.58h-1.3v-3.87h9.032zM35.16 46.355c0-.84.54-1.55 1.3-1.817v3.107c0 .18.014.358.027.535-.763-.26-1.317-.976-1.317-1.825zm1.3-5.986v2.826c-.48.098-.914.3-1.3.596v-4.47a3.38 3.38 0 0 1 2.707-3.302l.192-.04.96-.96a7.52 7.52 0 0 1 5.35-2.216 7.58 7.58 0 0 1 7.566 7.566v3.418c-.377-.285-.8-.5-1.3-.596v-2.82l-.8.2c-.026.005-2.56.625-6.296.625s-6.27-.62-6.295-.627l-.8-.198zm1.3 7.277v-5.66c1.066.198 3.128.497 5.806.497s4.74-.3 5.806-.497v5.66c0 3.202-2.605 5.806-5.806 5.806s-5.806-2.605-5.806-5.806zm5.806 7.097a7.07 7.07 0 0 0 2.58-.493v.87l-2.58 2.58-2.58-2.58v-.87a7.05 7.05 0 0 0 2.58.493zm-.744 8.387H44.3l.43 2.58h-2.348l.43-2.58zm1.7-1.3h-1.9l-.685-1.028 1.63-1.358 1.63 1.358-.685 1.028zm-4.345-5.714l2.445 2.445L40 60.73l-1.368-4.104 1.525-.508zM31.3 61.403a3.22 3.22 0 0 1 2.206-3.06l3.902-1.3 1.966 5.897 1.557-1.298.66.988-.514 3.08H31.3v-4.307zm24.516 0V65.7H46.03l-.514-3.08.66-.988 1.557 1.298 1.966-5.897 3.902 1.3a3.22 3.22 0 0 1 2.205 3.06zm-7.332-4.77l-1.368 4.104-2.602-2.168 2.445-2.445 1.525.508zM68.7 52.806H48.404a7.14 7.14 0 0 0 1.085-1.29H68.7v1.3z" fill-rule="nonzero"/></svg>