<svg xmlns="http://www.w3.org/2000/svg" width="100" height="100"><style><![CDATA[.B{fill-rule:nonzero}]]></style><g fill-rule="evenodd"><path d="M50 0L0 50l50 50 50-50L50 0zM7.14 50L50 7.14 92.86 50 50 92.86 7.14 50z" fill="#5a98ca" class="B"/><path d="M42.713 47.333v1.333c0 .735-.598 1.333-1.333 1.333h-2c-.735 0-1.333-.598-1.333-1.333v-10c0-.735.598-1.333 1.333-1.333h2c.547 0 1.04.335 1.24.84l.103.605 1.315-.223-.113-.667a.69.69 0 0 0-.029-.111A2.67 2.67 0 0 0 41.38 36h-2a2.67 2.67 0 0 0-2.667 2.667v10a2.67 2.67 0 0 0 2.667 2.667h2a2.67 2.67 0 0 0 2.667-2.667v-1.333h-1.333z"/><path d="M40.38 30a3.67 3.67 0 0 0-3.667 3.667 3.67 3.67 0 0 0 3.667 3.667 3.67 3.67 0 0 0 3.667-3.667A3.67 3.67 0 0 0 40.379 30zm0 6c-1.287 0-2.333-1.047-2.333-2.333s1.047-2.333 2.333-2.333 2.333 1.047 2.333 2.333S41.666 36 40.38 36zm-3 6h-1.467a1.87 1.87 0 0 0-1.867 1.867V46.8a1.87 1.87 0 0 0 1.867 1.867h1.467c.368 0 .667-.298.667-.667v-5.333A.67.67 0 0 0 37.38 42zm-.667 5.333h-.8c-.294 0-.533-.24-.533-.533v-2.933c0-.294.24-.533.533-.533h.8v4z" class="B"/><path d="M48.712 36h-2.667v1.333h2.667c1.103 0 2 .897 2 2v11.333h-6.667V46h-1.333v5.333c0 .37.3.667.667.667h8c.37 0 .667-.298.667-.667v-12A3.34 3.34 0 0 0 48.712 36z"/><path d="M51.27 30.5l-1.287.35a1.8 1.8 0 0 1 .063.491V34c0 1.103-.897 2-2 2s-2-.897-2-2v-2.673a1.8 1.8 0 0 1 .063-.485l-1.286-.353a3.08 3.08 0 0 0-.111.843V34a3.34 3.34 0 0 0 3.333 3.333A3.34 3.34 0 0 0 51.38 34v-2.66a3.12 3.12 0 0 0-.11-.848z"/><path d="M52.046 28H47.38a2.67 2.67 0 0 0-2.667 2.667v2.667a.67.67 0 0 0 .667.667c.173 0 .344-.068.47-.195l2.47-2.47h1.724a2.67 2.67 0 0 0 2.667-2.667c0-.368-.298-.667-.667-.667zm-2 2h-2a.66.66 0 0 0-.47.195l-1.53 1.53v-1.057c0-.735.598-1.333 1.333-1.333h3.82a1.33 1.33 0 0 1-1.154.667z" class="B"/><path d="M57.975 63.035l-6-12-1.193.597 5.702 11.403-1.503.75-5.32-9.433a1.93 1.93 0 0 0-1.688-1.019 1.93 1.93 0 0 0-1.927 1.927v2.956a2 2 0 0 1-1.231 1.836l-5.785 2.425-.743-1.485 5.363-2.383c.24-.107.396-.345.396-.6v-6.667h-1.333v6.234l-5.604 2.5a.67.67 0 0 0-.326.907l1.333 2.667a.67.67 0 0 0 .854.317l6.36-2.666a3.33 3.33 0 0 0 2.05-3.062v-2.96c0-.327.266-.593.587-.593a.6.6 0 0 1 .526.327l5.64 10a.67.67 0 0 0 .581.339.66.66 0 0 0 .297-.071l2.667-1.333c.33-.164.463-.565.298-.894z"/><path d="M40.34 65.1l-2.367-4.74c-.08-.158-.217-.28-.385-.335a.66.66 0 0 0-.509.036l-2.667 1.333a.67.67 0 0 0-.297.895l2.3 4.592A1.99 1.99 0 0 0 38.206 68h.347a1.99 1.99 0 0 0 1.79-1.11c.277-.557.277-1.223-.001-1.78zm-1.192 1.188a.66.66 0 0 1-.597.37h-.347a.66.66 0 0 1-.596-.37l-2.002-4 1.473-.737 2.068 4.143a.67.67 0 0 1 0 .593zm22.16-3.265c-.533-1.06-1.83-1.494-2.894-.963l-4 2c-.33.165-.463.565-.298.895l1.333 2.667a.67.67 0 0 0 .597.37.66.66 0 0 0 .297-.071l4-2c1.06-.533 1.494-1.83.964-2.896zm-1.56 1.703l-3.403 1.702-.737-1.474 3.402-1.7a.83.83 0 0 1 1.106.367.83.83 0 0 1-.368 1.107zM40.38 32.667a1 1 0 1 0 0 2 1 1 0 1 0 0-2zm0 1.333c-.184 0-.333-.15-.333-.333s.15-.333.333-.333.333.15.333.333-.15.333-.333.333z" class="B"/><path d="M61.066 40.44a2.43 2.43 0 0 0-.221-.254c-.437-.434-1.015-.672-1.63-.672a2.3 2.3 0 0 0-1.64.681l-2.817 2.817-2.866-3.44-1.025.853 3.333 4a.67.67 0 0 0 .984.045l3.335-3.335a.97.97 0 0 1 .692-.289.97.97 0 0 1 .693.284l.095.1c.292.4.253.945-.1 1.3l-3.297 3.297a2.84 2.84 0 0 1-2.014.84c-.96 0-1.843-.474-2.374-1.274l-.293-.433-1.104.748.3.427c.774 1.17 2.07 1.865 3.47 1.865a4.19 4.19 0 0 0 2.97-1.235l3.293-3.293c.8-.8.903-2.114.215-3.032z"/><path d="M49.943 46.252c-.125-.6-.48-1.133-.975-1.46L45.25 42.12l3-1.837c.008-.004.015-.01.023-.014l.122-.087a2.31 2.31 0 0 0 .885-1.54 2.3 2.3 0 0 0-.457-1.707 2.32 2.32 0 0 0-3.14-.553l-4.9 3.064c-.88.587-1.405 1.57-1.403 2.627a3.14 3.14 0 0 0 1.389 2.619l5.6 3.963c.397.266.847.393 1.292.393a2.32 2.32 0 0 0 1.864-.935l.08-.112a2.31 2.31 0 0 0 .339-1.749zm-1.485 1.063a.99.99 0 0 1-1.334.241l-5.602-3.964a1.79 1.79 0 0 1-.8-1.52 1.81 1.81 0 0 1 .793-1.507l4.9-3.065a.99.99 0 0 1 .55-.167 1 1 0 0 1 .804.407.98.98 0 0 1-.178 1.382l-3.894 2.382c-.2.117-.3.32-.32.544a.67.67 0 0 0 .277.567L48.22 45.9a.99.99 0 0 1 .426.63c.053.26.001.525-.18.795z" class="B"/><path d="M45.462 43.013l2.054-3.72 1.167.645-2.054 3.72zm-2.682 6.023l1.333-2.666 1.192.596-1.333 2.666z"/><path d="M37.38 47.333h6v1.333h-6zm20.016-8.515l1.298-.302 6.667 28.668-1.298.302zM40.046 36h7.333v1.333h-7.333z"/></g></svg>