<svg xmlns="http://www.w3.org/2000/svg" xmlns:xlink="http://www.w3.org/1999/xlink" viewBox="0 0 100 100"><defs><style>.cls-1{fill:url(#linear-gradient);}</style><linearGradient id="linear-gradient" x1="-3.65" y1="50" x2="103.65" y2="50" gradientUnits="userSpaceOnUse"><stop offset="0" stop-color="#00a79d"/><stop offset="1" stop-color="#29aae2"/></linearGradient></defs><title>Veevarustuse ja kanalisatsiooniteenuse katkemine</title><g id="Layer_2" data-name="Layer 2"><g id="Layer_1-2" data-name="Layer 1"><path class="cls-1" d="M50,0,1.79,48.21,0,50l50,50,50-50ZM7.14,50,50,7.14,92.86,50,50,92.86Z"/><path d="M59,58.8c-.55-1-1.14-1.86-1.34-2.16h0l0,0a1.34,1.34,0,0,0-1.88-.24l0,0,0,0-.16.15,0,.06a21.62,21.62,0,0,0-2.1,3.69A4.23,4.23,0,0,0,53,61.85a3.55,3.55,0,1,0,7.1,0,4.23,4.23,0,0,0-.37-1.52A12.71,12.71,0,0,0,59,58.8Zm-2.43,5.07a2,2,0,0,1-2-2,3.13,3.13,0,0,1,.25-1,14.16,14.16,0,0,1,.67-1.36c.41-.73.84-1.4,1.1-1.78a20.66,20.66,0,0,1,1.77,3.14,2.85,2.85,0,0,1,.25,1A2,2,0,0,1,56.52,63.87Z"/><path d="M65.55,34.43A22,22,0,1,0,72,50,21.92,21.92,0,0,0,65.55,34.43ZM30.49,50A19.51,19.51,0,0,1,62.9,35.36l-8.57,8.57a6.3,6.3,0,0,0-1.15-.1H52a3.59,3.59,0,0,0-1.77-1.89l.65.06H51a2.43,2.43,0,1,0,0-4.86H50.9a20,20,0,0,0-3.28.5,20.43,20.43,0,0,0-3.29-.5h0a2.43,2.43,0,1,0,0,4.86h0l.64-.06a3.6,3.6,0,0,0-1.77,1.89H38.7a1.33,1.33,0,0,0-1.32,1.32V49.6a1.34,1.34,0,0,0,1.32,1.32h4.5a3.55,3.55,0,0,0,2.12,2l-10,10A19.44,19.44,0,0,1,30.49,50Zm21.88-.59h-.1v-4h.91a5.38,5.38,0,0,1,5.36,5.36v3.13h-4v-2A2.43,2.43,0,0,0,52.37,49.41ZM46.5,43.13h2.23a2,2,0,0,1,2,2V49.6a1.86,1.86,0,0,1-.4,1.17,2,2,0,0,1-1.62.85H46.5a2,2,0,0,1-1.63-.85,1.86,1.86,0,0,1-.4-1.17V45.15a2,2,0,0,1,2-2Zm-2.24-2.65a.91.91,0,0,1-.9-.91.92.92,0,0,1,.9-.9,19.9,19.9,0,0,1,3.17.49l.19,0,.17,0A20.08,20.08,0,0,1,51,38.67a.9.9,0,0,1,.9.9.91.91,0,0,1-.9.91,17.75,17.75,0,0,1-2.82-.41L47.79,40l-.17,0-.19,0-.35.07A17.75,17.75,0,0,1,44.26,40.48ZM43,45.35v4h-4v-4ZM63.79,63.78a19.46,19.46,0,0,1-26.66.87L48.64,53.14h.09A3.54,3.54,0,0,0,52,50.92h0a.9.9,0,0,1,.9.9v2.23a1.32,1.32,0,0,0,1.32,1.32h4.45a1.32,1.32,0,0,0,1.33-1.32V50.71a6.85,6.85,0,0,0-3.2-5.8l7.79-7.78a19.48,19.48,0,0,1-.87,26.65Z"/></g></g></svg>